<svg xmlns="http://www.w3.org/2000/svg" xmlns:xlink="http://www.w3.org/1999/xlink" width="300" height="276" viewBox="0 0 300 276">
    <defs>
        <path id="prefix__a" d="M0.096 0.069L231.156 0.069 231.156 212.924 0.096 212.924z"/>
        <path id="prefix__c" d="M0 275.667L299.87 275.667 299.87 0.221 0 0.221z"/>
    </defs>
    <g fill="none" fill-rule="evenodd">
        <path fill="#000" d="M202.024 215.903c-.611 0-1.19-.37-1.406-.972-.274-.766.099-1.599.865-1.873.826-.295 1.666.106 1.939.873.274.766-.126 1.61-.892 1.884-.167.058-.338.088-.506.088"/>
        <g transform="translate(41.845 .152)">
            <mask id="prefix__b" fill="#fff">
                <use xlink:href="#prefix__a"/>
            </mask>
            <path fill="#000" d="M108.61 3.017h-.153c-.813-.013-1.462-.683-1.45-1.497.014-.814.646-1.422 1.497-1.451.809.013 1.521.676 1.514 1.486-.005.81-.6 1.462-1.409 1.462zm-8.2.24c-.773 0-1.422-.604-1.47-1.385-.05-.813.57-1.512 1.382-1.561.818-.026 1.574.565 1.624 1.377.05.812-.504 1.506-1.316 1.557l-.13.009-.09.002zm16.028.07c-.812-.062-1.42-.77-1.358-1.581.061-.81.757-1.433 1.58-1.358l.017 1.479-.24 1.46zm-24.065.715c-.726 0-1.358-.536-1.46-1.275-.11-.806.455-1.55 1.262-1.659l.144-.019c.808-.106 1.544.473 1.645 1.28.101.808-.472 1.545-1.28 1.645L92.5 2.552l.072 1.476c-.068.01-.135.014-.2.014zm32.326.185c-.065 0-.134-.004-.202-.014l-.143-.021c-.805-.122-1.36-.874-1.237-1.678.122-.805.87-1.369 1.678-1.236.802.121 1.418.877 1.301 1.68-.107.732-.684 1.27-1.397 1.27zM84.408 5.37c-.695 0-1.315-.494-1.447-1.202-.15-.801.376-1.571 1.177-1.72.788-.151 1.625.358 1.781 1.153.155.795-.298 1.553-1.09 1.714l-.148.029c-.092.018-.184.026-.273.026zm48.227.316c-.1 0-.203-.01-.307-.034l-.134-.029c-.795-.18-1.292-.969-1.114-1.763.18-.793.971-1.286 1.763-1.113.792.18 1.352.979 1.176 1.772-.153.688-.717 1.167-1.384 1.167zM76.55 7.236c-.652 0-1.248-.436-1.423-1.095-.209-.787.26-1.594 1.047-1.803.773-.209 1.65.24 1.863 1.023.21.784-.19 1.575-.972 1.79-.005 0-.132.034-.136.035-.126.034-.253.05-.379.05zm63.906.491c-.144 0-.288-.02-.432-.065l.432-1.409-.533 1.38c-.782-.228-1.232-1.046-1.005-1.827.228-.782 1.052-1.227 1.826-1.005l.143.043c.778.238 1.216 1.063.977 1.841-.194.634-.778 1.042-1.408 1.042zM69.356 9.544l-1.003-2.772.136-.046c.77-.263 1.607.152 1.868.923.26.771-.152 1.607-.924 1.868l-.472-1.395.395 1.422zm78.731.816c-.182 0-.367-.034-.547-.106l.547-1.368-.632 1.335c-.762-.283-1.152-1.131-.869-1.894.283-.764 1.131-1.155 1.895-.87l.153.06c.756.303 1.123 1.16.822 1.916-.231.576-.785.927-1.369.927zm-86.772 2.213c-.577 0-1.125-.341-1.36-.907-.314-.751.041-1.615.793-1.927.748-.313 1.665.013 1.982.759.317.745.032 1.581-.71 1.903l-.138.059c-.185.077-.378.113-.567.113zm94.139 1.01c-.202 0-.408-.045-.608-.141l-.116-.056c-.732-.354-1.04-1.236-.685-1.969.353-.732 1.233-1.039 1.968-.685.732.354 1.097 1.263.744 1.996-.259.533-.764.855-1.303.855zM54.022 16.042c-.534 0-1.048-.29-1.311-.797-.374-.723-.09-1.612.633-1.987.72-.371 1.668-.122 2.042.603.374.723.148 1.583-.574 1.957l-.115.06c-.216.11-.447.164-.675.164zm108.53 1.364c-.238 0-.48-.062-.705-.195l-.127-.076c-.696-.422-.917-1.329-.495-2.025.423-.696 1.332-.915 2.025-.495.692.42.97 1.354.555 2.05-.281.47-.759.741-1.253.741zM47.008 20.04c-.483 0-.956-.237-1.238-.672-.443-.683-.249-1.595.435-2.038l.146-.091c.694-.423 1.602-.202 2.024.495.422.696.2 1.603-.495 2.025l-.765-1.26.693 1.304c-.248.16-.526.237-.8.237zm122.294 1.78c-.273 0-.549-.083-.797-.257l-.126-.09c-.657-.48-.8-1.402-.32-2.06.48-.658 1.401-.8 2.06-.32.653.477.851 1.429.38 2.086-.295.411-.742.64-1.197.64zM41.266 24.22l-.949-1.132-.849-1.205c.664-.466 1.628-.35 2.098.308.472.657.378 1.534-.276 2.011l-.87-1.19.846 1.208zm134.046 2.927c-.389 0-.77-.16-1.05-.487l1.12-.96-1.15.924 1.065-1.02 1.12-.959c.53.618.5 1.597-.119 2.126-.291.25-.641.376-.986.376zM34.01 29.597c-.409 0-.817-.17-1.108-.503-.537-.612-.475-1.544.138-2.08.004-.002.103-.089.106-.092.616-.53 1.547-.463 2.08.157.53.617.46 1.547-.158 2.078l-.96-1.117.873 1.193c-.28.245-.626.365-.97.365zm145.808 4.206c-.507 0-.985-.262-1.24-.752l-.076-.15c-.353-.734-.046-1.615.688-1.968.73-.356 1.613-.048 1.968.686.35.726.08 1.655-.64 2.016-.227.113-.466.168-.7.168zM28.141 35.131c-.36 0-.723-.132-1.008-.399-.594-.556-.624-1.489-.068-2.083.01-.012.112-.114.124-.126.574-.574 1.508-.574 2.083 0 .576.576.576 1.509 0 2.085l-1.042-1.042.987 1.098c-.29.31-.683.467-1.076.467zm115.785 5.03c-.024 0-.046 0-.068-.002l-.132-.006c-.811-.038-1.44-.728-1.402-1.541.038-.814.716-1.447 1.542-1.403.812.038 1.504.73 1.466 1.543-.036.79-.627 1.409-1.406 1.409zm-8.198.16c-.755 0-1.398-.575-1.467-1.34-.074-.81.523-1.527 1.334-1.602.807-.065 1.59.517 1.665 1.327.075.81-.457 1.521-1.266 1.597l-.131.012c-.046.004-.09.006-.135.006zm16.234.65c-.075 0-.153-.006-.229-.018l.227-1.456-.327 1.441c-.806-.11-1.37-.853-1.26-1.66.11-.804.842-1.364 1.66-1.26l.154.023c.804.126 1.355.88 1.23 1.683-.115.727-.742 1.247-1.455 1.247zm-129.204.167c-.318 0-.64-.103-.908-.314-.64-.503-.753-1.429-.25-2.07l.112-.137c.523-.623 1.45-.706 2.077-.18.623.523.703 1.453.18 2.076l-1.128-.948 1.078 1.009c-.291.37-.724.564-1.16.564zm159.874.211c-.641 0-1.213-.397-1.38-1.053l-.033-.13c-.196-.79.284-1.59 1.074-1.788.787-.195 1.588.284 1.786 1.073.197.788-.266 1.65-1.054 1.85-.131.032-.264.048-.393.048zm-54.337.368l-.494-1.39-.4-1.42c.776-.216 1.655.216 1.878.997.223.78-.165 1.576-.945 1.802l-.41-1.415.371 1.426zm31.578.83c-.107 0-.217-.013-.327-.039l-.158-.038c-.787-.204-1.262-1.007-1.058-1.795.203-.789 1.006-1.267 1.796-1.059.782.202 1.317 1.01 1.124 1.794-.165.674-.724 1.136-1.377 1.136zm7.756 2.23c-.143 0-.289-.022-.436-.07-.006 0-.135-.043-.141-.046-.772-.26-1.185-1.097-.924-1.869.261-.77 1.098-1.185 1.868-.922.768.26 1.243 1.11.988 1.878-.206.623-.748 1.03-1.355 1.03zm-47.287.091c-.548 0-1.074-.306-1.328-.832-.354-.733-.047-1.615.685-1.969l.757 1.271.527 1.383c-.208.1-.426.147-.64.147zM17.915 47.592c-.297 0-.597-.09-.858-.277-.66-.474-.812-1.395-.338-2.056.47-.653 1.41-.863 2.072-.406.662.457.87 1.307.425 1.976l-.101.147c-.288.402-.74.616-1.2.616zm157.272.012c-.179 0-.36-.035-.54-.11l-.118-.05c-.753-.312-1.108-1.176-.794-1.927.313-.752 1.175-1.107 1.927-.793.752.313 1.166 1.2.853 1.952-.24.571-.761.928-1.328.928zm-61.93 1.128c-.483 0-.957-.237-1.24-.672-.441-.683-.247-1.595.436-2.038l.146-.091c.693-.423 1.602-.201 2.024.495.423.696.201 1.603-.494 2.025l-.765-1.26.693 1.304c-.248.16-.526.237-.8.237zm69.286 2.264c-.228 0-.46-.053-.676-.164l.677-1.31-.772 1.26c-.728-.364-1.024-1.25-.66-1.978.253-.506.76-.803 1.288-.814l-.006-.119c-.05-.813.569-1.511 1.381-1.56.804-.04 1.511.57 1.56 1.382.049.797-.542 1.546-1.332 1.62.042.294-.002.603-.15.886-.262.507-.776.797-1.31.797zm-75.865 2.41c-.43 0-.856-.188-1.148-.548-.511-.634-.413-1.561.22-2.073.63-.508 1.607-.456 2.12.176.512.63.47 1.514-.16 2.029l-.107.088c-.273.22-.6.328-.925.328zm-93.019 1.04c-.248 0-.5-.062-.729-.194-.707-.404-.952-1.304-.548-2.012.4-.704 1.329-1.008 2.037-.606.706.4.987 1.24.59 1.948-.002.003-.066.118-.069.121-.272.476-.769.743-1.28.743zm175.894.479c-.243 0-.49-.066-.72-.205l-.11-.067c-.696-.423-.918-1.33-.495-2.025.422-.697 1.33-.916 2.024-.496.696.423.972 1.363.55 2.059-.282.466-.757.734-1.25.734zm-5.86 2.464c-.043 0-.085-.002-.126-.005-.811-.075-1.413-.73-1.339-1.54l.012-.127c.076-.81.783-1.415 1.603-1.333.811.075 1.408.793 1.333 1.603-.07.769-.725 1.402-1.483 1.402zm-82.805 1.63c-.346 0-.693-.122-.973-.368-.611-.538-.67-1.469-.132-2.08.535-.61 1.504-.718 2.114-.187.612.531.722 1.407.194 2.023-.003.005-.091.107-.096.111-.292.332-.698.5-1.107.5zm95.427.4c-.302 0-.607-.093-.869-.284l.87-1.19-.967 1.119c-.66-.476-.808-1.398-.332-2.057.478-.66 1.399-.809 2.059-.332l.11.08c.657.48.8 1.402.32 2.06-.289.395-.737.604-1.191.604zm-186.288 2.23c-.209 0-.42-.044-.622-.138-.738-.344-1.056-1.222-.713-1.959.342-.731 1.23-1.112 1.971-.777.736.334 1.092 1.139.766 1.878l-.066.146c-.25.535-.782.85-1.336.85zm192.538 2.79c-.326 0-.652-.115-.922-.358l.983-1.098-1.019 1.066.924-1.15.984-1.098c.606.543.704 1.517.161 2.124-.3.336-.706.514-1.111.514zm-20.198.914c-.103 0-.208-.012-.313-.036-.785-.186-1.29-.905-1.115-1.692.002-.013.035-.15.038-.163.198-.79 1-1.265 1.787-1.072.79.197 1.27.998 1.073 1.787-.17.679-.795 1.176-1.47 1.176zm-86.039.308c-.244 0-.492-.06-.72-.189-.71-.398-.962-1.297-.564-2.006.393-.702 1.31-1.014 2.015-.633.708.382 1.009 1.203.64 1.918l-.084.158c-.271.481-.771.752-1.287.752zM7.045 69.143c-.15 0-.302-.023-.453-.071-.774-.25-1.2-1.08-.95-1.856l.058-.167c.277-.767 1.123-1.158 1.886-.888.767.277 1.163 1.122.887 1.887l-1.386-.5 1.36.574c-.2.623-.78 1.021-1.402 1.021zm201.397.914c-.393 0-.786-.157-1.075-.466l1.075-1.008-1.152.927c-.562-.588-.543-1.521.045-2.084.587-.561 1.52-.544 2.083.044l.1.105c.557.595.526 1.527-.068 2.084-.285.266-.647.398-1.008.398zm-28.353 3.105c-.167 0-.335-.029-.5-.088-.767-.276-1.163-1.12-.887-1.886l1.387.5-1.347-.614c.273-.767 1.113-1.17 1.883-.896.766.272 1.168 1.115.896 1.882-.001.002-.046.125-.046.128-.216.6-.783.974-1.386.974zm-86.465.074c-.103 0-.21-.011-.316-.034-.795-.174-1.299-.96-1.124-1.755.172-.788.963-1.353 1.745-1.193.79.16 1.315.862 1.167 1.653l-.034.17c-.15.69-.76 1.159-1.438 1.159zm119.956 2.951c-.415 0-.817-.18-1.096-.543l-.1-.132c-.48-.657-.336-1.579.32-2.06.658-.478 1.58-.336 2.06.321.477.652.38 1.616-.267 2.1-.278.21-.6.314-.917.314zm-208.86.68c-.12 0-.243-.015-.365-.046-.788-.2-1.266-1.002-1.065-1.791.2-.79 1.016-1.332 1.808-1.128.788.2 1.281.94 1.08 1.73l-.03.123c-.17.667-.77 1.111-1.428 1.111zm172.212 3.663c-.209 0-.419-.046-.614-.143-.722-.357-1.051-1.168-.706-1.894l.079-.161c.374-.723 1.265-1.005 1.986-.632.723.373 1.006 1.263.632 1.986-.269.52-.82.844-1.377.844zm-83.597.736c-.734 0-1.369-.547-1.46-1.294-.1-.807.465-1.606 1.273-1.706.803-.109 1.535.41 1.636 1.217l.016.13c.1.807-.475 1.542-1.283 1.642-.06.007-.122.011-.182.011zm124.801 1.66c-.511 0-1.009-.266-1.28-.742l1.28-.732-1.331.645c-.417-.7-.188-1.604.511-2.021.697-.416 1.604-.188 2.02.51l.078.135c.404.707.159 1.607-.548 2.011-.23.132-.482.194-.73.194zm-213.631.546l-1.463-.188-1.45-.268 1.472.141 1.44.315zM173 87.582c-.26 0-.52-.068-.752-.214-.68-.434-.92-1.28-.497-1.965.008-.01.082-.13.09-.14.447-.68 1.357-.871 2.04-.426.68.446.872 1.359.426 2.04-.293.446-.8.706-1.307.706zm-77.46 1.42c-.555 0-1.087-.314-1.337-.85l-.07-.155c-.322-.746.02-1.614.766-1.938.75-.325 1.614.02 1.94.767l-1.353.585 1.388-.505c.344.737.025 1.614-.712 1.958-.203.094-.414.139-.622.139zm126.15 1.084c-.548 0-1.054-.298-1.29-.84l-.065-.156c-.301-.756.066-1.613.821-1.915.756-.305 1.613.064 1.916.82.3.749-.033 1.658-.777 1.968-.2.083-.405.123-.606.123zM2.002 92.725c-.043 0-.087-.002-.131-.006-.811-.075-1.41-.761-1.336-1.572.075-.81.807-1.466 1.61-1.396.81.075 1.413.729 1.338 1.54-.077.83-.726 1.434-1.481 1.434zm166.322 1.428c-.318 0-.636-.098-.896-.31-.624-.506-.766-1.37-.27-2.004l.112-.137c.522-.624 1.45-.706 2.076-.181.624.523.704 1.453.18 2.076-.302.36-.754.556-1.202.556zM98.556 95.31c-.497-.646-.416-1.622.23-2.118.648-.498 1.532-.425 2.027.219l-1.168.898 1.203-.853-1.125.955-1.167.899zm125.78 2.393c-.624 0-1.184-.378-1.365-1.013l-.046-.166c-.2-.789.277-1.59 1.065-1.791.788-.198 1.592.276 1.792 1.066.199.78-.25 1.638-1.027 1.848-.14.037-.28.056-.418.056zm-61.424 2.427c-.381 0-.76-.139-1.038-.426-.564-.582-.596-1.467-.018-2.034l.104-.1c.585-.561 1.52-.543 2.083.044.563.588.543 1.521-.044 2.084-.297.285-.694.432-1.087.432zm-161.342.683c-.814 0-1.474-.66-1.474-1.474l.003-.172c.025-.814.702-1.411 1.52-1.428.813.025 1.452.705 1.427 1.518l-1.474-.045 1.471.127c0 .814-.66 1.474-1.473 1.474zm103.69.934c-.346 0-.694-.121-.973-.367l-.107-.095c-.606-.542-.657-1.474-.114-2.08.543-.605 1.476-.658 2.082-.114l-.984 1.097 1.07-1.021c.61.538.67 1.47.132 2.08-.291.331-.698.5-1.106.5zm51.505 3.587c-.458 0-.91-.198-1.19-.584-.478-.657-.386-1.539.27-2.019.002-.002.109-.078.11-.08.661-.479 1.581-.329 2.058.332.477.66.328 1.581-.331 2.057-.272.196-.596.294-.917.294zm69.42.229c-.664 0-1.249-.421-1.397-1.1-.004-.013-.033-.151-.036-.164-.152-.8.373-1.572 1.174-1.724.808-.152 1.571.374 1.723 1.172.151.792-.35 1.62-1.14 1.783-.109.022-.217.033-.324.033zm-114.52 1.09c-.28 0-.566-.08-.816-.248-.677-.45-.913-1.401-.462-2.078.453-.678 1.316-.896 1.99-.445l.107.071c.676.452.86 1.367.409 2.044-.285.426-.752.656-1.228.656zM1.708 108.886c-.793 0-1.447-.63-1.472-1.429-.025-.805.598-1.544 1.402-1.581.785-.049 1.486.515 1.535 1.318l.01.173c.024.813-.615 1.494-1.428 1.518l-.047.001zm148.192.638c-.557 0-1.1-.292-1.35-.81-.352-.727-.112-1.571.61-1.932l.15-.074c.739-.344 1.614-.025 1.959.713.344.737.025 1.614-.713 1.958-.208.097-.432.145-.656.145zm-31.169 1.017c-.202 0-.407-.041-.603-.13-.739-.332-1.13-1.224-.803-1.965.328-.741 1.13-1.107 1.876-.784.005.004.13.058.136.061.743.334 1.073 1.206.739 1.949-.246.546-.782.869-1.345.869zm23.66 1.85c-.665 0-1.302-.426-1.475-1.085-.204-.781.196-1.565.975-1.78.01-.002.144-.038.156-.04.788-.195 1.589.282 1.787 1.072.197.79-.283 1.59-1.073 1.788-.122.03-.247.045-.37.045zm-15.972.573c-.097 0-.195-.01-.295-.03-.798-.161-1.375-.952-1.214-1.75.163-.797.861-1.328 1.676-1.164l.126.026c.797.162 1.312.94 1.15 1.737-.142.7-.757 1.181-1.443 1.181zm101.314.59c-.713 0-1.34-.52-1.455-1.246l1.457-.228-1.47.14c-.148-.8.38-1.568 1.18-1.716.805-.154 1.57.382 1.719 1.182l.027.166c.126.805-.425 1.558-1.23 1.684-.075.012-.153.018-.228.018zm-93.413.055c-.793 0-1.447-.63-1.472-1.43-.025-.813.615-1.492 1.428-1.517l.045 1.473.06-1.477c.81-.051 1.503.59 1.54 1.404.039.812-.59 1.502-1.402 1.54l-.153.006-.046.001zM2.289 116.941c-.753 0-1.396-.574-1.467-1.338-.001-.016-.012-.158-.012-.173-.05-.813.568-1.512 1.38-1.563.79-.046 1.513.569 1.562 1.381l-1.471.09 1.477-.006c.075.81-.522 1.528-1.333 1.602-.046.005-.092.007-.136.007zm226.552 4.546c-.727 0-1.348-.491-1.438-1.232l-.019-.169c-.076-.81.518-1.529 1.33-1.605.828-.08 1.53.52 1.604 1.33.076.802-.5 1.58-1.3 1.666-.06.007-.12.01-.177.01zM2.857 124.995c-.773 0-1.422-.602-1.47-1.384-.05-.812.565-1.575 1.377-1.625.833-.056 1.507.504 1.557 1.317l.008.128c.05.812-.568 1.51-1.38 1.561-.03.002-.062.003-.092.003zm226.674 4.537c-.77 0-1.412-.542-1.46-1.32l-.008-.173c-.025-.813.614-1.493 1.427-1.518.83-.008 1.494.614 1.52 1.428.024.805-.599 1.544-1.403 1.581-.025.002-.051.002-.076.002zM3.336 133.057c-.793 0-1.447-.63-1.472-1.428-.025-.805.598-1.545 1.402-1.582.793-.043 1.487.516 1.535 1.319.001.014.008.157.01.171.024.814-.615 1.494-1.428 1.52h-.047zm226.346 4.611c-.86-.025-1.5-.704-1.475-1.518l1.473.045-1.47-.128c0-.814.66-1.474 1.473-1.474.813 0 1.473.66 1.473 1.474l-.002.173c-.025.799-.68 1.428-1.472 1.428zM3.7 141.124c-.772 0-1.42-.601-1.469-1.382l-.008-.175c-.025-.814.616-1.493 1.429-1.518.821.014 1.493.614 1.518 1.429l-1.473.044 1.475.037c.052.812-.566 1.511-1.378 1.562-.032.003-.063.003-.094.003zm225.473 4.534c-.049 0-.098-.002-.146-.008-.802-.085-1.392-.736-1.316-1.539 0-.013.016-.153.017-.166.097-.808.823-1.394 1.64-1.286.808.097 1.384.832 1.286 1.64-.09.752-.739 1.359-1.481 1.359zM3.899 149.195c-.793 0-1.448-.63-1.472-1.427l-.002-.175c0-.813.66-1.473 1.474-1.473.813 0 1.473.66 1.473 1.473H3.899l1.474.083c.025.813-.614 1.493-1.427 1.52h-.047zm224.038 4.503c-.104 0-.21-.012-.316-.036-.795-.173-1.3-.959-1.125-1.754l1.44.315-1.423-.397c.15-.8.913-1.328 1.72-1.177.8.15 1.327.92 1.177 1.72l-.035.169c-.15.689-.761 1.16-1.438 1.16zM3.83 157.268c-.86-.025-1.5-.705-1.474-1.518.025-.814.737-1.496 1.52-1.492.814.025 1.455.64 1.43 1.454l-.004.13c-.025.797-.68 1.427-1.472 1.427zm222.022 4.161c-.14 0-.282-.021-.421-.066-.774-.25-1.22-1.019-.97-1.794l.04-.122c.249-.774 1.074-1.202 1.855-.95.774.25 1.2 1.08.95 1.855-.205.635-.815 1.077-1.454 1.077zm-2.944 7.574c-.215 0-.433-.047-.639-.147-.733-.354-1.04-1.236-.688-1.968l1.328.64-1.298-.702c.323-.746 1.187-1.09 1.939-.766.746.324 1.089 1.191.766 1.94l-.079.169c-.255.527-.78.834-1.33.834zm-3.841 7.024c-.26 0-.52-.068-.751-.215-.677-.43-.918-1.268-.502-1.954.01-.018.089-.144.1-.16.453-.678 1.369-.86 2.045-.41.677.451.86 1.367.409 2.044-.294.44-.798.695-1.301.695zm-4.647 6.593c-.317 0-.632-.099-.89-.306-.634-.51-.775-1.385-.267-2.02 0-.002.082-.103.083-.105.512-.634 1.44-.731 2.073-.22.634.511.732 1.439.22 2.072-.301.374-.763.579-1.22.579zm-5.352 6.025c-.374 0-.742-.132-1.02-.409-.575-.576-.62-1.464-.044-2.038l.09-.091c.575-.577 1.51-.577 2.084 0 .576.575.576 1.509 0 2.083-.299.3-.707.455-1.11.455zm-5.936 5.454c-.42 0-.835-.166-1.117-.502-.523-.624-.492-1.511.131-2.035l.099-.083c.624-.526 1.553-.442 2.076.18.524.625.444 1.553-.18 2.077-.287.241-.65.363-1.01.363zm-6.39 4.912c-.47 0-.93-.206-1.21-.606-.464-.665-.356-1.545.309-2.012l.114-.08c.668-.464 1.588-.297 2.05.374.464.669.297 1.586-.373 2.05-.265.184-.58.274-.89.274zm-6.748 4.415c-.504 0-.999-.238-1.27-.685-.423-.696-.256-1.569.44-1.991l.11-.067c.694-.424 1.601-.202 2.024.494.422.696.2 1.602-.495 2.025-.248.15-.53.224-.81.224zm-7.24 3.538c-.587 0-1.16-.326-1.393-.887-.31-.743-.023-1.574.715-1.894l.157-.066c.757-.304 1.613.066 1.916.822.302.755-.066 1.613-.821 1.915-.185.075-.38.11-.574.11zm-7.483 3.048c-.598 0-1.18-.34-1.406-.914-.297-.755.011-1.584.765-1.884l.133-.054c.761-.291 1.613.082 1.908.842.294.76-.084 1.614-.842 1.908-.181.07-.37.102-.558.102zm-7.537 2.912c-.608 0-1.197-.35-1.417-.934-.284-.75.027-1.567.773-1.865l.173-.067c.77-.27 1.61.128 1.883.896.271.768-.13 1.61-.896 1.883-.168.059-.343.087-.516.087z" mask="url(#prefix__b)"/>
        </g>
        <path fill="#000" d="M158.407 3.488l.114-1.47-.114 1.47zM44.813 165.678c-.176 0-.355-.031-.528-.098-.76-.293-1.14-1.145-.848-1.905.29-.754 1.144-1.161 1.898-.88.758.28 1.157 1.091.886 1.85-.004.011-.027.077-.032.087-.225.587-.784.946-1.376.946M164.983 275.626H24.647c-.813 0-1.473-.66-1.473-1.474 0-.813.66-1.473 1.473-1.473h140.336c.813 0 1.473.66 1.473 1.473 0 .814-.66 1.474-1.473 1.474M298.396 275.626H176.005c-.814 0-1.474-.66-1.474-1.474 0-.813.66-1.473 1.474-1.473h122.391c.814 0 1.474.66 1.474 1.473 0 .814-.66 1.474-1.474 1.474"/>
        <path fill="#FE5814" d="M50.92 49.57c5.167 0 9.356 4.187 9.356 9.354 0 5.166-4.19 9.355-9.356 9.355-5.166 0-9.355-4.19-9.355-9.355 0-5.167 4.189-9.355 9.355-9.355M196.893 4.2c3.752 0 6.794 3.04 6.794 6.793 0 3.752-3.042 6.792-6.794 6.792-3.75 0-6.792-3.04-6.792-6.792 0-3.753 3.041-6.792 6.792-6.792M271.483 141.075c3.751 0 6.792 3.041 6.792 6.792 0 3.75-3.041 6.794-6.792 6.794-3.75 0-6.793-3.043-6.793-6.794 0-3.75 3.042-6.792 6.793-6.792"/>
        <mask id="prefix__d" fill="#fff">
            <use xlink:href="#prefix__c"/>
        </mask>
        <path d="M114.215 274.015L177.524 274.015 177.524 210.707 114.215 210.707z" mask="url(#prefix__d)"/>
        <path stroke="#000" stroke-width="3.304" d="M117.524 274.015L177.524 274.015 177.524 210.707 117.524 210.707z" mask="url(#prefix__d)"/>
        <path d="M52.379 274.015L115.687 274.015 115.687 210.707 52.379 210.707z" mask="url(#prefix__d)"/>
        <path stroke="#000" stroke-width="3.304" d="M54.276 274.567L117.585 274.567 117.585 211.258 54.276 211.258z" mask="url(#prefix__d)"/>
        <path d="M117.45 151.413v12.683c.4.273.78.576 1.136.914.033.03.058.064.086.097.02.016.035.035.053.053.727.325 1.402.754 2.003 1.33.201-.058.404-.044.593.019.478-.183 1.074.05 1.328.486.143.244.172.51.118.759.304.008.609.015.913.017 1.137.007 1.361 1.42.678 1.978 1.215.725 2.268 1.72 3.113 2.903 2.79 3.908 2.945 9.42.422 13.483-.146.235-.302.46-.463.678-.075 1.088-.445 2.088-1.037 3.097-.311.53-.846.621-1.293.455-.41.635-.816 1.274-1.13 1.967-.295.655-.929.689-1.406.396-.974 1.198-2.146 2.143-3.803 2.324-.392.267-.84.461-1.312.555V211.3h60.365v-59.887h-60.365z" mask="url(#prefix__d)"/>
        <path fill="#000" d="M115.977 149.94v13.61c.236-.057.5-.033.771.113.676.365 1.28.82 1.838 1.347.033.03.058.064.086.096.11.095.192.206.25.325v-12.545h57.418v56.94h-57.417v-14.884c-.642.49-1.468.77-2.29.725-.24-.013-.469-.092-.656-.226v17.33h63.309v-62.83h-63.309z" mask="url(#prefix__d)"/>
        <path fill="#000" d="M115.975 161.898c.007 1.119.024 2.235-.003 3.35 7.049 1.365 12.39 7.579 12.39 15.021 0 7.48-5.396 13.72-12.498 15.044-.01.027-.022.055-.034.082.013 1.087.048 2.172.063 3.255 8.918-1.372 15.772-9.085 15.772-18.381 0-9.268-6.812-16.965-15.69-18.371" mask="url(#prefix__d)"/>
        <path fill="#FFF5F1" d="M157.415 210.835c0 6.376-5.169 11.546-11.545 11.546-6.377 0-11.546-5.17-11.546-11.546 0-6.376 5.169-11.545 11.546-11.545 6.376 0 11.545 5.17 11.545 11.545" mask="url(#prefix__d)"/>
        <path fill="#000" d="M145.87 200.984c-5.433 0-9.852 4.42-9.852 9.851 0 5.432 4.42 9.852 9.852 9.852s9.852-4.42 9.852-9.852c0-5.431-4.42-9.851-9.852-9.851m0 23.09c-7.3 0-13.24-5.939-13.24-13.239 0-7.3 5.94-13.239 13.24-13.239s13.239 5.94 13.239 13.24c0 7.299-5.94 13.238-13.239 13.238" mask="url(#prefix__d)"/>
        <path fill="#FFF5F1" d="M124.381 225.477L167.571 225.477 167.571 212.996 124.381 212.996z" mask="url(#prefix__d)"/>
        <path fill="#FE5814" d="M23.637 148.613c-11.46-.663-21.287 8.09-21.95 19.55-.663 11.461 8.09 21.288 19.55 21.95.8.047 1.6.047 2.4 0h60.335c8.96-.003 16.22-7.27 16.217-16.23-.004-8.955-7.263-16.214-16.217-16.217h-1.155c1.913-13.81-7.732-26.557-21.542-28.47-13.81-1.913-26.557 7.731-28.47 21.541-2.851-1.404-5.989-2.13-9.168-2.124" mask="url(#prefix__d)"/>
        <path stroke="#000" stroke-width="3.304" d="M23.637 148.613c-11.46-.663-21.287 8.09-21.95 19.55-.663 11.461 8.09 21.288 19.55 21.95.8.047 1.6.047 2.4 0h60.335c8.96-.003 16.22-7.27 16.217-16.23-.004-8.955-7.263-16.214-16.217-16.217h-1.155c1.913-13.81-7.732-26.557-21.542-28.47-13.81-1.913-26.557 7.731-28.47 21.541-2.851-1.404-5.989-2.13-9.168-2.124z" mask="url(#prefix__d)"/>
    </g>
</svg>
