<svg xmlns="http://www.w3.org/2000/svg" width="40" height="48" viewBox="0 0 40 48">
    <g fill="none">
        <circle cx="14.177" cy="14.25" r="1" fill="#000" transform="rotate(-4.574 14.177 14.25)"/>
        <path fill="#000" d="M24.15 14.467h-7.976c-.178 0-.322-.145-.322-.323 0-.177.144-.322.322-.322h7.975c.178 0 .322.145.322.322 0 .178-.144.323-.322.323z"/>
        <circle cx="14.161" cy="18.162" r="1" fill="#000" transform="rotate(-4.574 14.161 18.162)"/>
        <path fill="#000" d="M24.15 18.364h-7.976c-.178 0-.322-.145-.322-.323 0-.177.144-.322.322-.322h7.975c.178 0 .322.145.322.322 0 .178-.144.323-.322.323z"/>
        <circle cx="14.146" cy="22.072" r="1" fill="#000" transform="rotate(-4.574 14.146 22.072)"/>
        <path fill="#000" d="M24.15 22.26h-7.976c-.178 0-.322-.144-.322-.322 0-.177.144-.322.322-.322h7.975c.178 0 .322.145.322.322 0 .178-.144.323-.322.323z"/>
        <g>
            <path fill="#000" d="M29.685 31.926h.221v-3.929c-.072.043-.146.082-.221.117v3.812zM26.57 28.029c-.102-.056-.2-.117-.295-.183v4.08h.294V28.03z" transform="translate(4.445)"/>
            <path fill="#000" d="M29.262 36.703v3.761c0 1.068-.865 1.933-1.932 1.933H2.61c-1.068 0-1.933-.865-1.933-1.933V5.783c0-1.067.865-1.932 1.932-1.932h5.114v1.288H4.53c-.833 0-1.508.676-1.509 1.508v32.154c.001.832.676 1.506 1.508 1.507H25.41c.833 0 1.507-.675 1.508-1.507v-2.098h-.644V38.8c0 .476-.387.863-.864.863H4.53c-.477 0-.864-.387-.864-.863V6.647c0-.476.387-.863.864-.863h3.193v2.383h14.493V5.784h3.194c.477 0 .863.387.864.863v15.588c.202-.139.418-.256.644-.35V6.648c0-.832-.675-1.506-1.508-1.507h-3.194V3.85h5.114c1.067 0 1.932.865 1.932 1.933v16.01c.224.074.44.17.644.287V5.784c0-1.423-1.153-2.576-2.576-2.576h-5.124c-.064-.48-.473-.837-.956-.838h-1.675V.966c0-.533-.432-.966-.966-.966H11.33c-.533 0-.966.433-.966.966V2.37H8.69c-.483 0-.892.358-.956.837H2.609C1.186 3.206.033 4.36.033 5.783v34.681c0 1.423 1.153 2.577 2.576 2.577h24.72c1.424 0 2.577-1.154 2.577-2.577v-3.761h-.644zM11.008 2.369V.966c0-.178.144-.322.322-.322h7.279c.178 0 .322.144.322.322v2.54c0 .177-.144.321-.322.321H11.33c-.178 0-.322-.144-.322-.322V2.37zm-2.64.966c0-.178.143-.322.321-.322h1.675v.492c0 .534.433.967.966.967h7.279c.534 0 .966-.433.966-.967v-.492h1.675c.178 0 .322.144.322.322v4.187H8.367V3.335z" transform="translate(4.445)"/>
            <path fill="#000" d="M32.657 37.025h-9.059c-.769-.001-1.392-.625-1.393-1.394V33.66c0-.404.328-.73.731-.731h1.799c.038-.741.65-1.323 1.392-1.324h.122v-3.391c-1.434-.887-2.094-2.626-1.612-4.241.483-1.616 1.989-2.707 3.674-2.663 1.686.044 3.132 1.213 3.53 2.851.397 1.639-.354 3.34-1.832 4.152v3.292h.122c.742 0 1.354.582 1.392 1.323h1.797c.404 0 .731.328.731.731v1.973c0 .77-.624 1.393-1.394 1.394zm-9.721-3.453c-.048 0-.087.04-.087.087v1.972c0 .414.335.749.749.75h9.06c.413-.001.748-.336.749-.75V33.66c0-.048-.04-.087-.087-.087h-2.442v-.574c0-.413-.335-.748-.749-.749h-.766v-4.336l.183-.087c1.288-.616 1.987-2.034 1.69-3.431-.296-1.397-1.51-2.41-2.938-2.449-1.428-.04-2.697.903-3.07 2.281-.374 1.379.244 2.833 1.496 3.52l.167.092v4.41h-.766c-.414 0-.749.336-.75.75v.573h-2.44z" transform="translate(4.445)"/>
            <path fill="#FFF" d="M25.053 33.268L31.2 33.268" transform="translate(4.445)"/>
            <path fill="#000" d="M25.053 32.928H31.201V33.928H25.053z" transform="translate(4.445)"/>
        </g>
        <rect width="13.321" height="13.269" y="29.938" fill="#FE5814" rx="1.289"/>
        <path fill="#FFF" d="M12.407 36.887c0-.493-.498-.914-.619-1.368-.129-.47.091-1.083-.147-1.495-.239-.411-.883-.534-1.224-.873-.34-.339-.456-.98-.874-1.224-.417-.243-1.024-.022-1.495-.147-.454-.122-.875-.62-1.368-.62-.492 0-.914.498-1.368.619-.471.129-1.084-.09-1.496.147-.411.239-.534.884-.873 1.224-.339.341-.98.456-1.224.874-.243.417-.022 1.025-.147 1.495-.122.454-.62.875-.62 1.368 0 .493.498.914.62 1.368.129.47-.091 1.083.147 1.495.239.412.883.535 1.224.873.34.34.456.98.873 1.224.418.244 1.025.022 1.496.148.454.122.875.62 1.368.62.492 0 .914-.498 1.368-.62.47-.129 1.083.09 1.495-.148.411-.238.534-.883.873-1.224.34-.34.98-.456 1.224-.873s.022-1.025.148-1.495c.121-.454.62-.875.62-1.368zm-5.725 4.089c-2.258 0-4.089-1.83-4.089-4.09 0-2.257 1.831-4.088 4.09-4.088 2.257 0 4.088 1.83 4.088 4.089-.002 2.257-1.832 4.086-4.089 4.089z"/>
        <path fill="#000" d="M6.682 42.935c-.38 0-.696-.203-.976-.38-.17-.11-.332-.212-.476-.25-.154-.042-.352-.034-.56-.025-.327.012-.696.028-1.013-.155-.316-.183-.492-.515-.644-.807-.095-.184-.186-.356-.295-.467-.11-.11-.283-.2-.467-.295-.29-.152-.62-.322-.806-.644-.186-.322-.168-.684-.157-1.01.009-.21.016-.409-.025-.563-.039-.145-.14-.306-.25-.476-.178-.28-.38-.597-.38-.975 0-.379.202-.696.38-.976.11-.17.211-.332.25-.476.041-.154.034-.352.025-.56-.013-.327-.028-.696.155-1.013.183-.316.515-.492.807-.644.184-.095.356-.186.466-.295.11-.11.2-.283.296-.467.152-.291.322-.62.644-.806.322-.186.685-.168 1.01-.155.21.008.408.017.563-.025.145-.039.306-.141.477-.25.28-.178.597-.38.975-.38s.696.203.975.38c.17.11.333.212.476.25.155.042.352.034.561.026.326-.014.696-.029 1.012.154.316.183.493.516.644.807.096.184.186.357.296.467.11.11.283.2.466.295.291.152.621.323.807.645.185.322.167.684.154 1.01-.008.21-.016.407.025.563.04.144.142.305.25.476.179.28.38.596.38.975s-.202.695-.38.975c-.108.17-.21.332-.25.476-.04.155-.033.352-.025.561.014.326.029.696-.154 1.012-.183.316-.516.493-.807.644-.184.095-.357.186-.467.296-.11.11-.2.283-.295.466-.152.291-.322.621-.645.807-.322.185-.684.167-1.01.154-.21-.008-.408-.017-.562.025-.145.039-.306.141-.476.25-.279.177-.596.38-.974.38zm-1.765-1.307c.161-.003.323.015.48.054.24.064.45.199.655.329.226.144.439.28.63.28.19 0 .403-.136.629-.28.204-.129.415-.265.656-.33.25-.064.506-.056.755-.046.261.01.508.021.662-.068.154-.089.273-.312.395-.547.114-.218.232-.444.412-.624.18-.18.405-.297.623-.41.235-.123.456-.239.548-.397.091-.158.08-.401.069-.663-.01-.248-.02-.504.046-.753.067-.25.2-.451.33-.656.143-.226.279-.439.279-.63 0-.19-.136-.403-.28-.629-.128-.204-.264-.415-.328-.656-.064-.249-.056-.506-.046-.754.01-.262.02-.509-.068-.663-.09-.154-.313-.273-.547-.395-.218-.114-.445-.232-.624-.412-.18-.18-.297-.405-.411-.623-.123-.235-.238-.456-.396-.548-.159-.091-.402-.079-.663-.069-.248.01-.505.02-.754-.046-.25-.067-.45-.2-.656-.33-.225-.143-.438-.279-.629-.279-.19 0-.404.136-.63.28-.204.128-.415.264-.656.328-.241.065-.506.057-.755.047-.262-.01-.508-.02-.662.068-.154.089-.273.312-.396.547-.114.218-.232.444-.411.624-.18.18-.406.297-.624.41-.234.123-.456.239-.547.397-.092.159-.08.403-.07.664.01.248.02.504-.047.753-.067.25-.199.451-.33.656-.143.225-.279.439-.279.63 0 .19.136.403.28.629.129.204.265.415.329.655.064.25.057.507.046.755-.01.262-.02.508.069.662.089.154.312.273.547.396.218.114.444.232.624.411.18.18.297.406.41.624.123.234.238.456.397.547.158.092.401.08.663.07.091-.004.183-.008.275-.008zm1.765-.33c-2.436 0-4.41-1.975-4.41-4.411 0-2.436 1.974-4.411 4.41-4.411s4.411 1.975 4.411 4.41c-.002 2.436-1.976 4.41-4.41 4.412zm0-8.18c-1.523 0-2.897.917-3.48 2.325-.583 1.407-.26 3.028.817 4.105 1.077 1.077 2.697 1.4 4.105.816 1.407-.583 2.325-1.956 2.325-3.48-.004-2.078-1.689-3.761-3.767-3.763v-.004z"/>
        <path fill="#000" d="M8 39.434c-.11 0-.217-.035-.305-.1L6.682 38.6l-1.014.735c-.181.132-.427.132-.61 0-.18-.132-.257-.366-.188-.58l.386-1.19-1.01-.736c-.182-.133-.258-.367-.188-.58.07-.215.269-.36.493-.36h1.25l.387-1.19c.07-.213.269-.358.494-.358.225 0 .424.145.494.359l.386 1.19h1.251c.225 0 .424.144.494.358s-.007.448-.189.58l-1.012.736.387 1.19c.051.158.024.331-.074.466-.097.134-.253.214-.42.214H8zm-1.317-1.632l1.08.785-.413-1.27 1.08-.785H7.095l-.412-1.27-.412 1.27H4.936l1.08.784-.412 1.268 1.079-.782zM8.163 41.042L7.946 40.435 7.983 40.422 8.207 41.026zM8.068 41.074L7.864 40.463 7.9 40.451 8.109 41.061zM8.389 40.954L8.139 40.36 8.188 40.339 8.322 40.631 8.451 40.926zM8.255 41.008l-.23-.602.1-.04.247.595-.116.046-.001.001zM8.48 40.915L8.217 40.327 8.269 40.302 8.542 40.886zM8.567 40.873L8.291 40.294 8.344 40.268 8.63 40.848zM8.82 40.744l-.312-.563c.208-.116.405-.252.588-.405l.529-.442v.837l-.116.097c-.214.18-.444.34-.688.476zM8.741 40.787L8.438 40.218 8.497 40.186 8.809 40.75zM8.656 40.83L8.368 40.254 8.423 40.226 8.722 40.797zM7.046 41.285L6.972 40.643 7.009 40.964 6.974 40.643 7.021 40.964 7.058 41.284zM7.244 41.263L7.155 40.624 7.163 40.623 7.255 41.262 7.206 40.943zM7.146 41.275L7.064 40.634 7.076 40.634 7.164 41.274zM9.614 47.453l-2.935-1.928-2.943 1.92.012-5.898.386.077c.169.024.34.029.51.015.248-.01.505-.021.754.046.25.067.45.199.656.33.225.143.438.279.629.279.19 0 .404-.136.63-.28.203-.129.415-.265.655-.329.25-.064.507-.057.755-.046.172.014.344.01.515-.015l.387-.08-.011 5.909zM6.68 44.754l2.29 1.506.007-3.974c-.092 0-.188-.003-.281-.007-.21-.008-.407-.016-.563.025-.144.039-.305.141-.476.25-.28.178-.597.38-.975.38s-.695-.202-.975-.38c-.17-.109-.332-.211-.476-.25-.155-.041-.352-.033-.561-.025-.092.004-.186.01-.278.007l-.006 3.967 2.294-1.499zM7.872 41.134L7.699 40.514 7.729 40.506 7.909 41.124zM7.97 41.105L7.782 40.489 7.816 40.479 8.01 41.094zM7.356 41.246L7.25 40.611 7.256 40.61zM7.774 41.161L7.614 40.537 7.639 40.53 7.804 41.153zM7.674 41.185L7.528 40.558 7.545 40.554 7.691 41.181z"/>
    </g>
</svg>
