<svg xmlns="http://www.w3.org/2000/svg" width="40" height="48" viewBox="0 0 40 48">
    <g fill="none">
        <path fill="#000" d="M33.028 34.723l-4.272-7.208c-.125-.212-.329-.365-.567-.426-.238-.06-.49-.024-.702.1l-1.039.617c-.771.458-1.084 1.418-.731 2.243-.432.21-.933.232-1.38.057l-1.096-.428c-.405-.16-.85-.188-1.272-.08l-1.674.424c-.082.02-.162.046-.24.077l-.031-.019c-.998-.572-1.582-.746-2.615-.347l-.969.375c-.497.193-1.055.147-1.513-.126l-.374-.221c.18-.763-.156-1.555-.83-1.955l-1.04-.615c-.211-.126-.464-.162-.702-.101-.238.06-.442.214-.567.425l-4.27 7.208c-.126.211-.162.464-.1.702.06.238.213.442.424.567l1.04.616c.274.163.589.25.909.25.384 0 .759-.123 1.069-.352l.484.286-.572.796c-.375.523-.379 1.227-.007 1.753.37.526 1.035.758 1.653.58.003.059.009.118.018.177.12.73.75 1.265 1.49 1.265.142 0 .283-.02.42-.06.035.807.698 1.443 1.506 1.445.083 0 .166-.007.248-.02.187-.031.367-.097.53-.195.162.678.767 1.157 1.465 1.159.083 0 .166-.007.248-.02.396-.064.75-.284.982-.61l.024-.033 1.325.785c.36.212.79.27 1.194.163.388-.1.72-.353.918-.702.146-.26.212-.558.188-.855l.242.144c.36.211.79.27 1.194.163.388-.1.72-.354.918-.702.15-.266.216-.572.188-.877.315.13.663.152.993.065.699-.18 1.167-.838 1.108-1.558.36.21.788.267 1.19.16.39-.099.722-.352.92-.702.347-.618.22-1.394-.305-1.87l.084-.055.859-.502c.24.113.5.17.765.171.32 0 .634-.086.909-.25l1.04-.616c.21-.125.363-.329.424-.567.061-.238.025-.49-.1-.702v.001zM8.838 36.05l-1.04-.615c-.063-.038-.109-.099-.127-.17-.018-.071-.007-.147.03-.21l4.272-7.208c.038-.063.099-.109.17-.127.071-.018.146-.007.21.03l1.039.616c.26.154.449.405.524.699.075.293.03.605-.124.865l-3.39 5.722c-.322.541-1.022.72-1.565.398zm2.285 3.117c-.385-.278-.472-.816-.195-1.202l.673-.935c.28-.377.811-.46 1.193-.186s.474.804.207 1.19l-.676.939c-.277.386-.816.474-1.202.197v-.003zm1.928 1.384c-.386-.279-.473-.817-.195-1.202l.672-.936.742-1.033c.133-.186.334-.31.56-.347.047-.008.094-.012.142-.012.322.001.617.182.764.47.147.286.122.632-.066.894l-1.414 1.969c-.133.187-.335.313-.561.35-.227.038-.459-.016-.645-.15v-.003zm1.927 1.384c-.385-.279-.472-.817-.195-1.202l1.414-1.97c.283-.37.809-.448 1.187-.176.379.272.473.795.213 1.181l-.627.873-.475.663-.315.44c-.278.385-.816.472-1.202.194v-.003zm2.881 1.097c-.344.057-.688-.1-.872-.396-.183-.296-.17-.673.032-.957l.471-.655c.282-.374.811-.455 1.192-.182.38.274.473.801.208 1.187l-.47.655c-.133.186-.335.312-.561.348zm10.925-4.238c-.112.196-.3.339-.52.395-.234.063-.483.03-.693-.093l-1.062-.63-.33.56c.403.24.54.759.31 1.168-.113.197-.3.339-.52.395-.235.063-.486.03-.696-.094l-.863-.511-.33.558c.403.241.54.76.31 1.17-.113.196-.3.338-.52.394-.235.063-.486.03-.695-.094l-1.31-.78-.33.558c.403.24.54.76.31 1.169-.113.196-.3.339-.52.395-.234.063-.485.029-.695-.095l-1.277-.758.065-.093c.329-.458.375-1.062.12-1.565-.255-.503-.77-.822-1.334-.826.305-.534.256-1.2-.124-1.683-.38-.483-1.016-.688-1.607-.517-.002-.06-.009-.119-.018-.178-.1-.603-.552-1.086-1.147-1.226-.595-.139-1.215.094-1.571.59l-.019.025c-.158-.446-.517-.793-.968-.935-.452-.143-.945-.065-1.33.21l-.484-.285.024-.039 3.33-5.62.306.179c.629.375 1.396.439 2.078.173l.969-.375c.678-.26 1.028-.247 1.775.15-.442.394-.695.958-.695 1.55v2.236c0 .496.402.897.897.898.961.002 1.795-.664 2.006-1.601l4.446 2.633.513.303 1.895 1.123c.4.241.537.758.307 1.166h-.003zm.014-2.164c-.118.07-.229.15-.333.238l-.82-.486-1.753-1.039-1.113-.663-3.757-2.224v.665c0 .774-.627 1.4-1.4 1.4-.137 0-.247-.111-.247-.248v-2.234c0-.655.446-1.226 1.082-1.385l1.675-.424c.29-.075.596-.055.874.055l1.095.43c.629.245 1.332.21 1.934-.095l3.175 5.359c.06.102.132.198.211.287l-.623.364zm3.698-1.364c-.018.072-.065.133-.13.17l-1.039.616c-.542.32-1.242.141-1.564-.401l-3.39-5.722c-.154-.26-.199-.571-.124-.865.075-.293.264-.545.525-.699l1.039-.616c.063-.037.138-.048.21-.03.07.019.132.065.169.128l4.272 7.208c.04.062.052.138.036.21l-.004.001z"/>
        <path fill="#000" d="M35.812 7.759c-.12-.266-.287-.508-.493-.715L28.86.584c-.206-.205-.448-.372-.714-.492-.119-.055-.26-.032-.355.058H6.217c-1.039 0-1.889.866-1.889 1.928v43.466c0 1.063.85 1.928 1.895 1.928H33.86c1.045 0 1.895-.865 1.895-1.928V8.113c.09-.096.112-.236.057-.354zM28.338.987l.065.06 6.46 6.46c.02.02.04.042.06.065H30.79c-1.354-.002-2.452-1.1-2.453-2.453V.987zm5.52 45.836H6.223c-.686 0-1.245-.573-1.245-1.279V2.078C4.978 1.373 5.537.8 6.223.8H27.69v4.316c.001 1.713 1.39 3.101 3.102 3.103h4.315v37.326c0 .706-.557 1.28-1.245 1.28h-.003z"/>
        <circle cx="14.809" cy="18.033" r="1" fill="#000" transform="rotate(-4.574 14.809 18.033)"/>
        <path fill="#000" d="M24.873 18.236h-8.037c-.18 0-.325-.146-.325-.325 0-.18.145-.325.325-.325h8.037c.18 0 .324.146.324.325 0 .18-.145.325-.324.325zM27.276 21.743h-9.782c-.18 0-.325-.146-.325-.325 0-.18.146-.325.325-.325h9.782c.179 0 .324.146.324.325 0 .18-.145.325-.324.325z"/>
        <path fill="#000" d="M17.494 21.743h-.056c-.18 0-.325-.145-.325-.325 0-.179.146-.324.325-.324h.056c.18 0 .325.145.325.324 0 .18-.146.325-.325.325zm-2.004 0h-2.598c-.18 0-.324-.145-.324-.325 0-.179.145-.324.324-.324h2.598c.18 0 .325.145.325.324 0 .18-.146.325-.325.325zM22.73 24.99h-.745c-.18 0-.325-.145-.325-.324 0-.18.145-.325.325-.325h.745c.179 0 .324.145.324.325 0 .179-.145.324-.324.324zm-2.696 0h-2.598c-.18 0-.324-.145-.324-.324 0-.18.145-.325.324-.325h2.598c.18 0 .325.145.325.325 0 .179-.146.324-.325.324zM23.623 14.772c-.217 0-.42-.11-.54-.291l-2.998-4.555-2.997 4.556c-.134.202-.37.312-.61.287-.241-.026-.448-.184-.536-.409l-.408-1.05-1.126.04c-.242.009-.468-.119-.587-.33-.119-.21-.11-.47.022-.673l3.467-5.268h5.55l3.466 5.266c.132.203.141.463.022.674-.119.21-.345.338-.587.33l-1.126-.04-.408 1.05c-.097.25-.337.413-.605.413h.001zm-7.65-2.13l.574 1.482 3.538-5.379 3.54 5.38.573-1.481 1.588.057-3.275-4.973H17.66l-3.275 4.975 1.587-.06z"/>
        <circle cx="20.053" cy="5.942" r="3.215" fill="#FE5814"/>
        <path fill="#000" d="M20.053 9.482c-1.955 0-3.54-1.585-3.54-3.54s1.585-3.54 3.54-3.54c1.954 0 3.54 1.585 3.54 3.54-.003 1.954-1.586 3.537-3.54 3.54zm0-6.43c-1.596 0-2.89 1.294-2.89 2.89s1.294 2.89 2.89 2.89 2.89-1.294 2.89-2.89c-.002-1.595-1.295-2.888-2.89-2.89z"/>
        <circle cx="38.401" cy="41.405" r="1" fill="#000" transform="rotate(-85.18 38.4 41.405)"/>
        <path fill="#000" d="M38.399 39.718c-.18 0-.325-.145-.325-.324v-8.04c0-.18.146-.325.325-.325.18 0 .325.146.325.325v8.04c0 .18-.146.324-.325.324z"/>
        <circle cx=".668" cy="6.889" r="1" fill="#000" transform="rotate(-4.82 .668 6.889)"/>
        <path fill="#000" d="M.668 17.262c-.18 0-.325-.145-.325-.325v-8.04c0-.18.145-.325.325-.325.179 0 .324.146.324.325v8.04c0 .18-.145.325-.324.325z"/>
    </g>
</svg>
