<svg xmlns="http://www.w3.org/2000/svg" width="46" height="48" viewBox="0 0 46 48">
    <g fill="none">
        <path fill="#000" d="M9.506 19.543H3v-6.507h1.773c.089-.756.73-1.326 1.491-1.326.762 0 1.402.57 1.491 1.326h1.751v1.927c.762.083 1.338.727 1.338 1.492 0 .766-.576 1.41-1.338 1.493v1.595zm-5.847-.66h5.188v-1.648l.378.056c.04.005.08.008.121.008.316.001.606-.175.751-.456.145-.28.12-.619-.063-.876-.184-.257-.497-.39-.81-.343l-.376.056v-1.984H7.049l.05-.373c.004-.038.007-.075.007-.112.008-.307-.15-.594-.414-.75-.264-.155-.592-.155-.856 0-.264.156-.422.443-.414.75 0 .037.003.074.008.112l.048.372H3.66v5.189z"/>
        <path fill="#000" d="M44.967 9.099h-6.066v-2.44c0-1.456-1.18-2.637-2.637-2.637H9.23c-1.457 0-2.638 1.18-2.638 2.637v2.044H.99c-.546 0-.989.443-.989.99V21.56c0 .547.443.99.989.99h11.868c.546 0 .99-.443.99-.99V9.692c0-.546-.444-.989-.99-.989H7.253V6.66c0-1.092.885-1.978 1.978-1.978h27.033c1.092 0 1.978.886 1.978 1.978V9.1h-5.143c-.546 0-.99.443-.99.989v11.868c0 .546.444.99.99.99h11.868c.546 0 .989-.444.989-.99V10.088c0-.546-.443-.99-.989-.99zm-31.78.593V21.56c0 .183-.148.33-.33.33H.99c-.182 0-.33-.147-.33-.33V9.692c0-.182.148-.33.33-.33h11.868c.182 0 .33.148.33.33zm32.11 12.264c0 .182-.148.33-.33.33H33.099c-.182 0-.33-.148-.33-.33V10.088c0-.182.148-.33.33-.33h11.868c.182 0 .33.148.33.33v11.868z"/>
        <path fill="#000" d="M41.616 15.36v-1.928h-1.75c-.09-.756-.73-1.326-1.492-1.326s-1.402.57-1.491 1.326H35.11v6.506h6.506v-1.594c.762-.083 1.338-.726 1.338-1.492s-.576-1.41-1.338-1.493zm-.16 2.333c-.041 0-.081-.002-.121-.008l-.378-.056v1.649h-5.188V14.09h1.82l-.05-.373c-.043-.325.105-.646.382-.822.276-.177.63-.177.906 0 .277.176.425.497.381.822l-.05.373h1.799v1.982l.377-.055c.313-.047.625.086.809.343.184.257.209.595.064.876-.145.28-.436.457-.752.456z"/>
        <path fill="#FE5814" d="M28.88 0H17.01c-.364 0-.66.295-.66.66v11.867c0 .365.296.66.66.66h11.868c.364 0 .66-.295.66-.66V.66c0-.175-.07-.342-.194-.466C29.222.07 29.054 0 28.88 0zm-3.75 8.843c-.059.003-.118.003-.177 0h-4.44c-.66 0-1.195-.535-1.195-1.194 0-.66.535-1.194 1.194-1.194h.085c-.14-1.017.57-1.955 1.586-2.095 1.016-.141 1.955.569 2.095 1.585.555-.302 1.238-.236 1.726.166.487.403.68 1.061.488 1.663-.193.603-.732 1.027-1.363 1.072l.001-.003z"/>
        <path fill="#000" d="M25.042 9.175h-4.53c-.791.002-1.452-.602-1.521-1.391-.069-.789.477-1.498 1.257-1.634.026-1.063.813-1.954 1.865-2.111 1.052-.158 2.065.465 2.4 1.474.689-.199 1.431.013 1.91.547.48.534.611 1.294.34 1.958-.273.664-.9 1.113-1.616 1.157h-.105zm-4.53-2.39c-.477 0-.864.387-.864.864s.387.864.864.864h4.46c.342.02.677-.106.92-.348.242-.242.37-.577.35-.919-.04-.661-.606-1.166-1.267-1.129h-.02c-.183 0-.364.041-.528.123l-.41.202-.065-.453c-.07-.544-.428-1.009-.936-1.217-.509-.208-1.09-.128-1.522.21-.432.34-.65.884-.57 1.427l.052.375h-.464zM32.077 23.736c-.679 0-1.265.247-1.612.629-.322-.37-.857-.612-1.454-.612s-1.125.24-1.45.604c-.34-.384-.908-.637-1.553-.637-.422-.004-.836.112-1.195.334.026-2.088.013-6.762-.024-7.846v-.034l-.008-.032c-.205-.847-.838-1.702-2-1.563-.825.1-1.682.765-1.682 1.707V30.93l-.56 1.51h-.554c-.152-.764-.52-2.556-.699-2.912-.018-.098-.029-.197-.031-.296-.048-.725-.147-2.237-2.246-3.783-1.055-.776-1.968-.978-2.717-.6-.841.426-1.105 1.411-1.105 1.722 0 .312.282.71.976 1.626.292.387.725.962.803 1.165-.033.176-.013.674.402 2.94.248 1.356.527 2.749.593 3.044.132.593 2.317 5.26 2.696 6.066v1.445h.659v-1.59l-.03-.066c-.99-2.103-2.59-5.591-2.68-6-.212-.953-1.032-5.198-.993-5.707.096-.308-.16-.683-.924-1.698-.317-.418-.79-1.049-.842-1.24.01-.174.207-.85.743-1.12.634-.32 1.45.118 2.029.543 1.852 1.365 1.934 2.62 1.978 3.296.015.232.026.4.097.543.123.245.482 1.912.697 3.015l.052.263h1.556l.76-2.048V16.286c0-.443.42-.97 1.102-1.052.296-.036 1.007-.005 1.272 1.031.038 1.187.05 6.377.018 8.146 0 .009 0 .241-.003.583-.01.06-.016.122-.016.184v3.375h.66V25.18c0-.433.558-.8 1.219-.8s1.22.367 1.22.8v3.239h.66v-3.223c0-.425.513-.783 1.12-.783.607 0 1.12.359 1.12.783v3.223h.66v-3.231c0-.429.589-.791 1.286-.791.697 0 1.286.362 1.286.79v11.287c-.066 1.003-.301 2.025-.499 2.149l-.057.035-1.795 2.552-.023 1.644.66.009.02-1.438 1.61-2.29c.548-.447.702-1.978.743-2.63V25.187c0-.814-.857-1.45-1.945-1.45z"/>
        <rect width="15.758" height="4.813" x="17.011" y="42.659" fill="#FE5814" rx=".659"/>
        <circle cx="6.925" cy="27.367" r="1" fill="#000" transform="rotate(-4.82 6.925 27.367)"/>
        <path fill="#000" d="M6.923 37.9c-.182 0-.33-.148-.33-.33v-8.163c0-.182.148-.33.33-.33.182 0 .33.148.33.33v8.163c0 .182-.148.33-.33.33z"/>
        <circle cx="39.035" cy="36.96" r="1" fill="#000" transform="rotate(-85.18 39.035 36.96)"/>
        <path fill="#000" d="M39.033 35.248c-.182 0-.33-.147-.33-.33v-8.162c0-.182.148-.33.33-.33.182 0 .33.148.33.33v8.163c0 .182-.148.33-.33.33z"/>
    </g>
</svg>
