<svg xmlns="http://www.w3.org/2000/svg" width="48" height="48" viewBox="0 0 48 48">
    <g fill="none">
        <path fill="#000" d="M37.733 35.576c2.647-2.763 4.457-6.22 5.22-9.969.017-.084 0-.172-.048-.244-.048-.072-.122-.122-.207-.138l-.62-.122c.208-1.139.312-2.294.312-3.451-.007-7.398-4.29-14.124-10.99-17.26L27.05.092c-.083-.081-.202-.112-.314-.082-.112.031-.199.119-.228.23l-.377 1.445c-.519-.1-1.049-.157-1.118-.165-3.805-.409-7.647.268-11.082 1.953-.077.038-.137.106-.164.187-.028.082-.022.172.017.249l.499 1c-1.613.878-3.09 1.983-4.387 3.282-3.582 3.562-5.59 8.408-5.577 13.46 0 1.202.112 2.402.336 3.583v.006l-.85 6.104c-.017.115.03.23.121.3.092.072.214.089.321.046l1.381-.561c.231.477.501.935.537.994 1.946 3.295 4.786 5.971 8.19 7.718.078.04.167.046.25.02.081-.027.15-.086.188-.163l1.167-2.316c.08-.16.017-.353-.141-.435-2.854-1.468-5.235-3.713-6.867-6.477-.107-.179-.212-.366-.317-.56l1.325-.533c.108-.043.184-.14.2-.255.016-.115-.03-.23-.122-.3l-4.742-3.698c-.217-1.144-.325-2.306-.324-3.47-.014-4.878 1.924-9.56 5.382-13 1.247-1.25 2.667-2.314 4.216-3.16l.37.741c.08.16.273.225.433.147 2.883-1.413 6.107-1.981 9.3-1.639.205.021.42.049.637.08l-.361 1.382c-.03.112.003.231.086.313.082.081.202.112.314.082L31.172 5c6.447 3.039 10.564 9.523 10.57 16.65 0 1.116-.1 2.23-.3 3.327l-1.29-.255c-.176-.034-.346.079-.381.254-.644 3.143-2.164 6.04-4.384 8.358-.144.15-.296.303-.454.454l-.873-1.13c-.071-.092-.186-.14-.3-.124-.115.016-.213.091-.257.198l-2.338 5.704c-.044.107-.027.23.044.32.07.093.185.14.3.124l6.106-.821c.114-.016.212-.091.256-.198.044-.107.028-.23-.043-.321l-.911-1.178c.4-.354.768-.737.816-.787zM8.03 29.458c-.108.043-.184.141-.2.257-.015.115.033.23.125.3.145.275.292.539.44.788 1.64 2.774 4.007 5.047 6.845 6.573l-.877 1.738c-3.17-1.693-5.812-4.225-7.64-7.318-.233-.392-.444-.797-.633-1.211-.071-.16-.257-.235-.42-.169l-1.146.464.697-4.993 3.975 3.1-1.166.47zM25.72 5.826l.318-1.216c.03-.112-.003-.233-.087-.314-.083-.082-.204-.113-.316-.08-.307-.049-.607-.088-.894-.119-3.203-.344-6.44.194-9.36 1.557l-.87-1.743c3.253-1.529 6.862-2.134 10.434-1.75.454.047.904.12 1.35.215.171.041.344-.063.389-.234l.312-1.197 3.587 3.542-4.863 1.34zm10.55 30.238c-.136.11-.159.31-.051.449l.757.979-4.994.676 1.912-4.664.768.994c.072.092.187.139.302.123.115-.017.213-.093.256-.201.224-.213.439-.426.64-.636 2.227-2.327 3.776-5.218 4.48-8.362l1.91.377c-.775 3.508-2.5 6.736-4.986 9.33-.315.329-.646.641-.994.935z"/>
        <rect width="12.971" height="12.971" x="34.154" y="8.26" fill="#FE5814" rx=".649"/>
        <path fill="#000" d="M45.633 17.76h-6.967c-1.66 0-3.006-1.345-3.006-3.006 0-1.66 1.346-3.006 3.006-3.006h3.96c1.66.002 3.004 1.347 3.006 3.006v3.007zm-6.967-5.363c-1.302 0-2.358 1.055-2.358 2.357 0 1.303 1.056 2.358 2.358 2.358h6.317v-2.357c-.001-1.302-1.056-2.356-2.357-2.358h-3.96z"/>
        <circle cx="40.646" cy="14.755" r="1" fill="#000"/>
        <circle cx="38.257" cy="14.755" r="1" fill="#000"/>
        <circle cx="43.036" cy="14.755" r="1" fill="#000"/>
        <rect width="12.971" height="12.971" x="17.161" y="34.442" fill="#FE5814" rx=".649"/>
        <path fill="#000" d="M21.813 44c-.082 0-.16-.03-.219-.086l-.02-.02-2.377-2.374c-.157-.156-.244-.368-.244-.589 0-.22.087-.432.244-.588l2.384-2.385.02-.02c.086-.08.206-.107.317-.073.111.035.195.125.221.238.026.113-.01.231-.095.31l-2.388 2.388c-.035.034-.054.081-.055.13 0 .048.019.095.053.13l2.376 2.375c.1.09.133.233.084.358-.049.125-.17.207-.305.206h.004zM25.478 44.002c-.134 0-.253-.081-.302-.205-.05-.124-.017-.265.08-.356l.005-.004 2.376-2.376c.034-.034.053-.08.053-.13 0-.048-.02-.095-.055-.13l-2.384-2.384c-.064-.059-.102-.14-.105-.227-.003-.086.029-.17.088-.233.121-.129.323-.136.454-.017l.02.019 2.384 2.384c.156.156.244.368.244.589 0 .22-.088.432-.244.588l-2.376 2.376-.02.019c-.059.055-.137.087-.218.087zM23.016 44.002c-.1 0-.193-.045-.254-.122-.062-.077-.085-.178-.063-.275l1.263-5.492c.04-.175.214-.284.389-.244.174.04.283.215.243.39l-1.262 5.492c-.034.147-.165.251-.316.251z"/>
        <rect width="12.971" height="12.971" y="8.292" fill="#FE5814" rx=".649"/>
        <path fill="#000" d="M4.237 16.053c-.113 0-.218-.06-.277-.156-.059-.097-.063-.217-.01-.318l1.123-2.162c.051-.097.149-.163.259-.173.11-.01.217.037.285.124l.88 1.131.557-1.238c.045-.098.135-.168.242-.186.106-.018.215.018.29.097l.74.784 1.897-2.076c.074-.096.197-.143.317-.12.12.023.217.111.251.228.034.118 0 .244-.09.328L8.568 14.65c-.061.067-.147.105-.237.106-.09 0-.177-.036-.239-.102l-.648-.685-.58 1.287c-.046.104-.144.175-.257.189-.113.013-.225-.034-.294-.124l-.897-1.156-.891 1.713c-.056.108-.167.175-.288.175z"/>
        <path fill="#000" d="M10.68 18.215H2.29c-.179 0-.324-.146-.324-.325v-6.226c0-.179.145-.324.324-.324.18 0 .325.145.325.324v5.902h8.063c.18 0 .325.145.325.324 0 .18-.146.325-.325.325zM24.662 29.694H22.05c-.369-.002-.688-.259-.768-.619l-.219-1.008c-.21-.075-.418-.161-.621-.26l-.868.558c-.311.199-.718.155-.98-.105l-1.848-1.848c-.26-.262-.303-.669-.105-.98l.557-.868c-.096-.202-.182-.41-.259-.62l-1.008-.22c-.359-.08-.615-.398-.617-.766v-2.614c.002-.368.258-.687.618-.767l1.008-.219c.076-.21.162-.418.26-.621l-.558-.868c-.198-.311-.154-.718.105-.98l1.848-1.848c.262-.26.67-.303.98-.105l.868.557c.203-.096.41-.182.621-.259l.22-1.008c.08-.359.398-.614.766-.616h2.614c.368.002.687.259.767.619l.22 1.008c.21.075.417.161.62.259l.868-.558c.311-.198.718-.154.98.105l1.848 1.849c.26.262.303.668.105.98l-.557.867c.096.203.182.41.26.622l1.007.219c.36.08.617.398.619.767v2.611c-.002.369-.259.687-.62.767l-1.013.22c-.076.21-.162.418-.26.621l.558.868c.198.311.154.718-.105.98l-1.848 1.848c-.262.26-.67.304-.98.105l-.868-.557c-.203.096-.41.182-.621.26l-.22 1.007c-.08.358-.396.613-.762.617zm-4.262-2.63l.166.085c.282.143.574.264.874.362l.178.058.297 1.368c.014.063.07.107.134.107h2.613c.065 0 .12-.044.134-.107l.297-1.368.177-.058c.3-.098.593-.219.874-.362l.166-.084 1.178.757c.054.035.125.027.17-.018l1.849-1.848c.045-.046.053-.117.018-.172l-.757-1.177.084-.166c.143-.282.264-.574.362-.875l.058-.177 1.368-.297c.063-.014.107-.07.108-.133v-2.614c0-.064-.045-.12-.108-.134l-1.368-.297-.058-.177c-.098-.3-.219-.592-.362-.874l-.084-.166.757-1.178c.035-.054.027-.125-.018-.17l-1.848-1.85c-.046-.044-.117-.052-.171-.017l-1.178.757-.166-.084c-.281-.143-.574-.264-.874-.363l-.177-.057-.297-1.368c-.014-.063-.07-.107-.134-.108H22.05c-.064 0-.12.045-.134.108l-.297 1.368-.177.057c-.3.099-.593.22-.874.363l-.166.084-1.18-.757c-.054-.035-.124-.027-.17.018l-1.848 1.848c-.046.046-.053.117-.019.171l.758 1.178-.084.166c-.143.282-.265.574-.363.874l-.058.177-1.367.297c-.063.014-.108.07-.108.133v2.614c0 .064.045.12.108.134l1.367.297.058.176c.098.3.22.593.363.874l.084.166-.757 1.18c-.034.054-.027.125.018.17l1.849 1.849c.045.045.116.053.17.018l1.177-.757zm2.955-2.32c-1.25 0-2.378-.754-2.856-1.909-.479-1.155-.214-2.485.67-3.37.884-.883 2.214-1.148 3.369-.67 1.155.48 1.908 1.606 1.908 2.857-.001 1.706-1.384 3.09-3.09 3.091h-.001zm0-5.535c-1.35 0-2.443 1.094-2.443 2.443 0 1.35 1.094 2.443 2.443 2.443 1.35 0 2.443-1.094 2.443-2.443-.001-1.349-1.094-2.441-2.442-2.443h-.001z"/>
    </g>
</svg>
