<svg xmlns="http://www.w3.org/2000/svg" width="56" height="48" viewBox="0 0 56 48">
    <g fill="none">
        <path fill="#000" d="M8.035 33.61h29.81c.205 0 .372-.166.372-.372s-.167-.372-.372-.372H8.035c-.206 0-.373.166-.373.372s.167.373.373.373z"/>
        <path fill="#000" d="M52.58 0H2.494C1.117.002.002 1.117 0 2.494v33.725c0 .281.045.56.135.827.303 1.075 1.283 1.817 2.399 1.82h17.96c.055 0 .11-.013.158-.037h1.92c.049.024.103.036.157.037h.134l-3.366 4.471h-6.36c-.617 0-1.118.5-1.118 1.118v1.833c0 .617.5 1.117 1.118 1.117h28.8c.617 0 1.118-.5 1.118-1.117v-1.83c0-.618-.5-1.119-1.118-1.119h-6.359l-3.366-4.471H52.54c1.117-.002 2.097-.744 2.4-1.82.09-.267.135-.547.134-.829V2.494C55.072 1.117 53.957.002 52.58 0zM36.14 44.085h5.797c.206 0 .373.166.373.372v1.83c0 .206-.167.373-.373.373H13.137c-.206 0-.372-.167-.372-.372v-1.83c0-.207.166-.373.372-.373h5.798l-.028.036h17.26l-.028-.036zm-1.49-.746h-14.22l3.366-4.471h7.484l3.37 4.471zm19.68-10.473H40.08c-.205 0-.372.166-.372.372s.167.373.372.373h14.208v2.757c0 .153-.02.306-.06.453-.257.754-.966 1.261-1.762 1.261H2.608c-.796 0-1.503-.506-1.761-1.26-.04-.147-.06-.3-.06-.452v-2.76h5.012c.206 0 .372-.166.372-.372s-.166-.372-.372-.372H.745V6.058H54.33v26.808zM.745 2.494C.746 1.529 1.53.746 2.494.745H52.58c.966.001 1.748.784 1.749 1.749V5.25H.745V2.494z"/>
        <circle cx="3.953" cy="3" r="1" fill="#000"/>
        <circle cx="6.515" cy="3" r="1" fill="#000"/>
        <circle cx="9.076" cy="3" r="1" fill="#000"/>
        <path fill="#000" d="M50.044 11.317H29.996c-.205 0-.372-.167-.372-.373s.167-.373.372-.373h20.048c.205 0 .372.167.372.373s-.167.373-.372.373zM28.767 11.317h-2.981c-.206 0-.373-.166-.373-.372s.167-.373.373-.373h2.98c.207 0 .373.167.373.373s-.166.372-.372.372zm-5.217 0h-2.981c-.206 0-.373-.166-.373-.372s.167-.373.373-.373h2.981c.206 0 .373.167.373.373s-.167.372-.373.372zM50.044 15.043H33.499c-.206 0-.373-.167-.373-.373s.167-.372.373-.372h16.545c.205 0 .372.166.372.372s-.167.373-.372.373zM31.412 15.044h-.41c-.205 0-.372-.167-.372-.373s.167-.373.372-.373h.413c.205 0 .372.167.372.373s-.167.373-.372.373h-.003zm-2.648 0h-2.978c-.206 0-.373-.167-.373-.373s.167-.373.373-.373h2.98c.207 0 .373.167.373.373s-.166.373-.372.373h-.003zm-5.216 0h-2.98c-.205 0-.372-.167-.372-.373s.167-.373.373-.373h2.981c.206 0 .373.167.373.373s-.167.373-.373.373h-.002zM23.923 22.422h-2.981c-.206 0-.373-.167-.373-.373s.167-.373.373-.373h2.98c.206 0 .373.167.373.373s-.167.373-.372.373zm-5.217 0h-2.981c-.206 0-.373-.167-.373-.373s.167-.373.373-.373h2.98c.207 0 .373.167.373.373s-.166.373-.372.373zm-5.217 0h-2.981c-.206 0-.373-.167-.373-.373s.167-.373.373-.373h2.981c.206 0 .373.167.373.373s-.167.373-.373.373zm-5.217 0h-2.98c-.207 0-.373-.167-.373-.373s.166-.373.372-.373h2.981c.206 0 .373.167.373.373s-.167.373-.373.373zM25.301 25.887H5.291c-.206 0-.372-.167-.372-.373 0-.205.166-.372.372-.372h20.01c.206 0 .373.167.373.372 0 .206-.167.373-.373.373zM26.568 29.352h-1.155c-.206 0-.373-.166-.373-.372s.167-.373.373-.373h1.155c.206 0 .373.167.373.373s-.167.372-.373.372zm-3.393 0h-4.47c-.205 0-.372-.166-.372-.372s.167-.373.373-.373h4.471c.206 0 .373.167.373.373s-.167.372-.373.372h-.002zm-6.707 0h-4.47c-.205 0-.372-.166-.372-.372s.167-.373.373-.373h4.471c.206 0 .373.167.373.373s-.167.372-.373.372h-.002zm-6.707 0H5.29c-.206 0-.372-.166-.372-.372s.166-.373.372-.373h4.472c.206 0 .372.167.372.373s-.166.372-.372.372H9.76z"/>
        <path d="M8.31 16.321l-.015-.014-2.804-2.8c-.113-.113-.177-.266-.177-.425 0-.16.064-.312.177-.424l2.815-2.815.014-.013"/>
        <path fill="#000" d="M8.31 16.694c-.095 0-.186-.037-.255-.102l-.022-.02-2.806-2.803c-.379-.38-.379-.995 0-1.375L8.042 9.58l.022-.021c.097-.095.237-.13.367-.093.13.038.23.144.259.276.03.132-.015.27-.116.36l-.007.007-2.81 2.813c-.09.089-.09.233 0 .321l2.81 2.81c.109.106.143.267.087.408-.057.14-.193.233-.344.234z"/>
        <path d="M12.631 16.321l.014-.014 2.805-2.805c.113-.112.177-.264.177-.424 0-.159-.064-.312-.177-.424L12.635 9.84l-.014-.014"/>
        <path fill="#000" d="M12.631 16.694c-.153 0-.29-.094-.346-.235-.057-.142-.02-.305.09-.41l.008-.006 2.804-2.804c.088-.088.088-.232 0-.32l-2.82-2.82c-.097-.09-.139-.227-.109-.357.03-.13.127-.233.254-.272.128-.04.266-.007.364.083l.022.022 2.816 2.816c.38.38.38.995 0 1.375l-2.804 2.805-.022.021c-.07.066-.161.102-.257.102zM9.726 16.697c-.114 0-.222-.051-.292-.14-.071-.089-.098-.205-.072-.316l1.49-6.483c.03-.13.127-.234.254-.273.128-.04.266-.008.364.083.097.09.139.227.109.357l-1.49 6.483c-.04.17-.19.29-.363.29z"/>
        <path fill="#FE5814" d="M36.587 29.626H49.504000000000005V33.255H36.587zM36.587 35.692H49.504000000000005V39.321H36.587zM36.587 23.56H49.504000000000005V27.189H36.587z"/>
        <path fill="#000" d="M51.683 29.999H34.408c-.618 0-1.118-.5-1.118-1.118v-.947c0-.617.5-1.118 1.118-1.118h17.275c.618 0 1.118.5 1.118 1.118v.947c0 .617-.5 1.118-1.118 1.118zm-17.275-2.437c-.206 0-.373.166-.373.372v.947c0 .206.167.372.373.372h17.275c.206 0 .373-.166.373-.372v-.947c0-.206-.167-.372-.373-.372H34.408zM51.683 23.933H34.408c-.618 0-1.118-.5-1.118-1.118v-.946c0-.618.5-1.118 1.118-1.118h17.275c.618 0 1.118.5 1.118 1.118v.946c0 .618-.5 1.118-1.118 1.118zm-17.275-2.437c-.206 0-.373.167-.373.373v.946c0 .206.167.373.373.373h17.275c.206 0 .373-.167.373-.373v-.946c0-.206-.167-.373-.373-.373H34.408zM51.683 36.065H34.408c-.618 0-1.118-.5-1.118-1.118v-.946c0-.618.5-1.118 1.118-1.118h17.275c.618 0 1.118.5 1.118 1.118v.946c0 .617-.5 1.118-1.118 1.118zm-17.275-2.437c-.206 0-.373.167-.373.373v.946c0 .206.167.373.373.373h17.275c.206 0 .373-.167.373-.373v-.946c0-.206-.167-.373-.373-.373H34.408zM51.683 42.13H34.408c-.618 0-1.118-.5-1.118-1.117v-.947c0-.617.5-1.118 1.118-1.118h17.275c.618 0 1.118.5 1.118 1.118v.947c0 .617-.5 1.118-1.118 1.118zm-17.275-2.436c-.206 0-.373.166-.373.372v.947c0 .205.167.372.373.372h17.275c.206 0 .373-.167.373-.372v-.947c0-.206-.167-.372-.373-.372H34.408z"/>
    </g>
</svg>
