<svg xmlns="http://www.w3.org/2000/svg" width="49" height="48" viewBox="0 0 49 48">
    <g fill="none">
        <g>
            <path fill="#FE5814" d="M2.925 7.867H14.337V11.073H2.925zM2.925 2.508H14.337V5.714H2.925zM2.925 13.226H14.337V16.432000000000002H2.925z" transform="translate(28.84 1.251)"/>
            <path fill="#000" d="M16.263 16.103H1c-.545 0-.987.442-.987.988v.836c0 .545.442.988.987.988h15.263c.546 0 .988-.443.988-.988v-.836c0-.546-.442-.988-.988-.988zm.33 1.824c0 .182-.148.33-.33.33H1c-.182 0-.33-.148-.33-.33v-.836c0-.182.148-.33.33-.33h15.263c.182 0 .33.148.33.33v.836zM16.263 5.385H1c-.545 0-.987.442-.987.987v.836c0 .546.442.988.987.988h15.263c.546 0 .988-.442.988-.988v-.836c0-.545-.442-.987-.988-.987zm.33 1.823c0 .182-.148.33-.33.33H1c-.182 0-.33-.148-.33-.33v-.836c0-.182.148-.329.33-.329h15.263c.182 0 .33.147.33.33v.835zM16.263.026H1c-.545 0-.987.442-.987.987v.837c0 .545.442.987.987.987h15.263c.546 0 .988-.442.988-.987v-.837c0-.545-.442-.987-.988-.987zm.33 1.824c0 .181-.148.329-.33.329H1c-.182 0-.33-.148-.33-.33v-.836C.67.831.819.684 1 .684h15.263c.182 0 .33.147.33.33v.836zM16.263 10.744H1c-.545 0-.987.442-.987.987v.836c0 .546.442.988.987.988h15.263c.546 0 .988-.442.988-.988v-.836c0-.545-.442-.987-.988-.987zm.33 1.823c0 .182-.148.33-.33.33H1c-.182 0-.33-.148-.33-.33v-.836c0-.182.148-.329.33-.329h15.263c.182 0 .33.147.33.33v.835z" transform="translate(28.84 1.251)"/>
        </g>
        <path fill="#000" d="M18.144 22.247H7.813c-1.89-.002-3.422-1.534-3.424-3.424v-.558c.002-1.89 1.534-3.421 3.424-3.423h6.907c1.89.002 3.422 1.533 3.424 3.423v3.982zM7.813 15.5c-1.527 0-2.766 1.238-2.766 2.765v.558c0 1.527 1.239 2.765 2.766 2.765h9.673v-3.323c0-1.527-1.238-2.765-2.766-2.765H7.813z"/>
        <circle cx="11.267" cy="18.545" r="1" fill="#000"/>
        <circle cx="8.261" cy="18.545" r="1" fill="#000"/>
        <circle cx="14.273" cy="18.545" r="1" fill="#000"/>
        <g fill="#000" transform="translate(0 26.469)">
            <circle cx="7.917" cy="15.144" r="1"/>
            <circle cx="7.917" cy="17.901" r="1"/>
            <circle cx="7.917" cy="12.386" r="1"/>
            <path d="M48.482 7.181L44.444.184c-.059-.102-.168-.165-.285-.165H5.423C5.32.02 5.221.07 5.16.155L.066 7.152c-.073.1-.083.232-.028.342.056.11.168.18.291.181h4.557V20c0 .546.442.988.987.988h13.873c.243 0 .478-.09.659-.254.18.164.415.254.658.254H43.47c.545 0 .988-.442.988-.988V7.675h3.739c.117 0 .226-.062.285-.164.059-.102.059-.228 0-.33zM.976 7.017L5.59.677h14.376l-4.615 6.34H.976zm18.77 13.313H5.873c-.182 0-.33-.148-.33-.33V7.675h9.976c.104 0 .202-.051.263-.135l4.293-5.894V20c0 .182-.147.33-.329.33zM43.8 20c0 .182-.147.33-.329.33H21.063c-.182 0-.33-.148-.33-.33V1.528l3.455 5.983c.059.102.167.164.285.164h19.326V20zM24.663 7.017l-3.66-6.34h22.963l3.66 6.34H24.664z"/>
            <circle cx="41.711" cy="9.352" r="1" transform="rotate(-4.82 41.711 9.352)"/>
            <path d="M41.71 11.062c-.182 0-.33.147-.33.329v8.152c0 .182.148.329.33.329.181 0 .329-.147.329-.33v-8.151c0-.182-.148-.33-.33-.33z"/>
        </g>
        <g>
            <path fill="#FE5814" d="M15.962 0H.7C.336 0 .041.295.041.658v10.095c0 .364.295.659.658.659h15.263c.364 0 .659-.295.659-.659V.658c0-.363-.295-.658-.659-.658zM10.75 7.77c-.056 0-.112-.005-.168-.013v1.596H4.74V3.515h1.77c-.006-.052-.01-.104-.009-.156.015-.635.534-1.142 1.17-1.142.635 0 1.154.507 1.17 1.142 0 .052-.004.104-.01.156h1.749v1.928c.435-.066.87.117 1.126.475.256.357.29.828.088 1.219-.202.39-.606.635-1.046.632z" transform="translate(4.148)"/>
            <path fill="#000" d="M10.91 9.683H4.411V3.185h1.771c.089-.755.729-1.324 1.489-1.324.76 0 1.4.57 1.489 1.324h1.75V5.11c.76.083 1.336.725 1.336 1.49s-.575 1.408-1.336 1.49v1.593zm-5.839-.659h5.18v-1.65l.378.056c.04.005.08.008.121.008.316.001.605-.174.75-.455.145-.28.12-.618-.063-.875-.184-.257-.496-.389-.808-.342l-.377.055V3.844H8.457l.05-.373c.004-.037.006-.074.006-.112.009-.306-.15-.592-.413-.747-.263-.156-.59-.156-.854 0-.264.155-.422.441-.414.747 0 .038.003.075.008.112l.05.372H5.07l.001 5.181z" transform="translate(4.148)"/>
        </g>
        <g fill="#000">
            <path d="M.038 13.738h1.001c1.148.002 2.08.932 2.08 2.08v5.58h.659v-5.58c-.002-1.511-1.227-2.737-2.739-2.738H.036v.05l.002.608zM1.87.675h1.322c1.148 0 2.08 1.12 2.08 2.502v18.222h.66V3.176c0-1.742-1.23-3.16-2.74-3.16H1.87c-.182 0-.33.147-.33.329 0 .182.148.33.33.33zM8 21.399V10.65c.002-1.148.933-2.079 2.081-2.08h1.322c.182 0 .33-.148.33-.33 0-.181-.148-.329-.33-.329h-1.322c-1.512.002-2.737 1.227-2.739 2.74v10.747h.659z" transform="translate(17.778 5.136)"/>
        </g>
    </g>
</svg>
