<svg width="161" height="98" viewBox="0 0 161 98" fill="none" xmlns="http://www.w3.org/2000/svg">
<path fill-rule="evenodd" clip-rule="evenodd" d="M128 33.0002C127.08 33.0002 126.208 33.1922 125.312 33.2722C117.595 11.1922 95.086 -2.11082 72.022 1.77718C48.957 5.66418 32.053 25.6102 32 49.0002C32 49.5042 32.064 49.9922 32.072 50.4962C29.489 49.5312 26.757 49.0262 24 49.0002C10.745 49.0002 0 59.7452 0 73.0002C0 86.2552 10.745 97.0002 24 97.0002H128C145.673 97.0002 160 82.6732 160 65.0002C160 47.3272 145.673 33.0002 128 33.0002Z" fill="url(#paint0_linear)"/>
<path d="M129 33C128.08 33 127.208 33.192 126.312 33.272C121.424 19.139 110.22 8.096 96.0181 3.412C81.8161 -1.272 66.2411 0.940001 53.9041 9.392C72.4211 11.272 88.1751 23.701 94.3121 41.272C95.2081 41.192 96.0801 41 97.0001 41C110.338 40.952 122.296 49.213 126.971 61.705C131.647 74.196 128.051 88.278 117.96 97H129C146.673 97 161 82.673 161 65C161 47.327 146.673 33 129 33Z" fill="url(#paint1_linear)" stroke="white" stroke-width="2"/>
<defs>
<linearGradient id="paint0_linear" x1="30.488" y1="31.8288" x2="179.271" y2="148.441" gradientUnits="userSpaceOnUse">
<stop stop-color="#343434"/>
<stop offset="1"/>
</linearGradient>
<linearGradient id="paint1_linear" x1="116.417" y1="44.9658" x2="129.574" y2="-1.56634" gradientUnits="userSpaceOnUse">
<stop stop-color="#343434"/>
<stop offset="1"/>
</linearGradient>
</defs>
</svg>
