<svg xmlns="http://www.w3.org/2000/svg" width="1440" height="539" viewBox="0 0 1440 539">
    <defs>
        <linearGradient id="51a8w2mcsa" x1="50%" x2="50.319%" y1="47.902%" y2="57.577%">
            <stop offset="0%" stop-color="#FFF5F1"/>
            <stop offset="100%" stop-color="#FFF"/>
        </linearGradient>
    </defs>
    <path fill="url(#51a8w2mcsa)" fill-rule="evenodd" d="M789 911l-133.828-.34c-3.201.226-6.437.34-9.704.34-3.502 0-6.968-.132-10.393-.39L-12 908.963V476.611c-26.282-5.08-46-26.31-46-51.728C-58 395.677-31.967 372 .147 372c30.636 0 55.738 21.547 57.984 48.887 8.646-2.685 17.903-4.14 27.527-4.14 47.856 0 86.65 35.97 86.65 80.342 0 6.972-.957 13.737-2.758 20.188 4.622-.571 9.35-.866 14.16-.866 51.685 0 94.03 34.01 97.782 77.153 19.221-12.746 42.481-20.202 67.539-20.202 66.117 0 119.715 51.907 119.715 115.936 0 14.322-2.682 28.037-7.585 40.701l.508-.012 1.376-.01c30.797 0 57.687 14.307 72.082 35.574 18.153-37.635 60.721-64.05 110.34-64.05 38.73 0 73.163 16.092 95.044 41.05 23.223-24.648 59.842-41.706 102.1-44.342 41.224-2.572 79.277 9.117 106.037 29.677 26.202-36.165 75.015-62.1 132.606-65.691 65.602-4.092 124.45 21.938 153.505 62.903 19.183-21.46 53.95-35.8 93.654-35.8 4.264 0 8.47.165 12.607.487-.39-2.474-.684-4.98-.883-7.512-4.524-57.71 42.22-107.639 104.407-111.517 28.325-1.767 54.969 6.325 76.013 21.114 10.588-36.327 49.183-63.255 95.172-63.255 7.66 0 15.114.747 22.268 2.16-5.526-10.638-8.586-22.373-8.586-34.703 0-48.303 46.962-87.46 104.893-87.46 1.026 0 2.048.012 3.067.036 8.27-21.263 32.356-36.648 60.781-36.648 35.262 0 63.848 23.677 63.848 52.883 0 18.219-11.123 34.286-28.052 43.796 3.407 8.616 5.25 17.825 5.25 27.393 0 22.168-9.892 42.41-26.196 57.824L1813 907.962l-558 1.419V910h-159.695c-5.48.208-10.908.204-16.27 0l-291.479.001c.488.334.969.667 1.444.999z" transform="translate(0 -372)"/>
</svg>
