<svg xmlns="http://www.w3.org/2000/svg" width="1327" height="399" viewBox="0 0 1327 399">
    <defs>
        <linearGradient id="mjvom3nf2a" x1="62.674%" x2="62.674%" y1="-7.988%" y2="63.613%">
            <stop offset="0%" stop-color="#FFC679"/>
            <stop offset=".069%" stop-color="#FFC679"/>
            <stop offset="90%" stop-color="#FFF5F0"/>
            <stop offset="100%" stop-color="#FFF"/>
        </linearGradient>
    </defs>
    <path fill="url(#mjvom3nf2a)" d="M1399.283 528.734c68.38-36.405 143.941-28.012 168.771 18.746 24.83 46.758-10.474 114.175-78.854 150.58-9.925 5.284-20.003 9.625-30.054 13.04.92 4.173 1.394 8.446 1.394 12.796 0 47.283-56.146 85.613-125.405 85.613-44.412 0-83.432-15.76-105.713-39.536-15.34 55.95-61.74 96.612-116.597 96.612-62.123 0-113.4-52.146-121.011-119.584-22.584 22.544-60.55 37.339-103.58 37.339-18.377 0-35.831-2.7-51.559-7.548C826.58 852.58 762.655 911 685.305 911c-84.37 0-152.766-69.506-152.766-155.245 0-.26 0-.518.002-.776-22.973 24.888-58.356 40.832-98.047 40.832-37.032 0-70.315-13.88-93.27-35.953-24.225 22.353-56.274 35.953-91.418 35.953C174.25 795.811 113 732.95 113 655.406 113 577.862 174.25 515 249.806 515c53.758 0 100.273 31.822 122.639 78.113 18.294-9.03 39.475-14.188 62.05-14.188 62.253 0 113.912 39.226 123.726 90.654 27.395-41.646 74.089-69.07 127.085-69.07 41.288 0 78.75 16.646 106.245 43.693 22.998-18.99 57.771-31.089 96.684-31.089 52.6 0 97.637 22.11 116.26 53.458 20.312-43.935 61.2-73.948 108.33-73.948 52.038 0 96.465 36.59 113.992 88.107 18.158-21.197 49.29-36.585 85.958-41.09 3.375-39.987 35.873-83.949 86.508-110.906z" transform="translate(-113 -512)"/>
</svg>
