<svg xmlns="http://www.w3.org/2000/svg" xmlns:xlink="http://www.w3.org/1999/xlink" width="170" height="82" viewBox="0 0 170 82">
    <defs>
        <rect id="mdqiid9t1a" width="170" height="81.34" x="0" y="0" rx="8.134"/>
    </defs>
    <g fill="none" fill-rule="evenodd">
        <mask id="o88yw4joab" fill="#fff">
            <use xlink:href="#mdqiid9t1a"/>
        </mask>
        <use fill="#FCC8B2" xlink:href="#mdqiid9t1a"/>
        <g mask="url(#o88yw4joab)" opacity=".5">
            <g>
                <path fill="#FFF" fill-rule="nonzero" d="M72.39 87.52H7.356C3.294 87.52 0 84.399 0 80.548v-34.94c0-3.85 3.294-6.972 7.357-6.972h65.032c4.063 0 7.357 3.121 7.357 6.971v34.941c0 3.85-3.294 6.972-7.357 6.972zM7.356 41.424c-2.438 0-4.414 1.873-4.414 4.183v34.941c0 2.31 1.976 4.183 4.414 4.183h65.032c2.438 0 4.414-1.873 4.414-4.183v-34.94c0-2.31-1.976-4.184-4.414-4.184H7.357z" transform="translate(95.167 10.574)"/>
                <path stroke="#FFF" stroke-width="2.789" d="M39.873 0h0C56.84 0 70.594 13.034 70.594 29.113V40.03H9.152V29.113C9.152 13.034 22.906 0 39.872 0z" transform="translate(95.167 10.574)"/>
                <path stroke="#FFF" stroke-width="2.789" d="M60.354 40.03V28.1c0-10.718-9.17-19.408-20.481-19.408h0c-11.311 0-20.48 8.69-20.48 19.409v11.93h40.96z" transform="translate(95.167 10.574)"/>
                <path fill="#FFF" fill-rule="nonzero" d="M43.904 76.602h-8.063V69.65c-3.821-1.777-5.845-5.816-4.883-9.746.963-3.93 4.658-6.712 8.915-6.712 4.257 0 7.952 2.782 8.915 6.712.962 3.93-1.062 7.97-4.884 9.746v6.952zm-5.12-2.788h2.178V67.74l.98-.329c2.85-.955 4.56-3.718 4.049-6.542-.511-2.825-3.096-4.889-6.12-4.889-3.023 0-5.608 2.064-6.12 4.889-.51 2.824 1.2 5.587 4.05 6.542l.98.33.003 6.073z" transform="translate(95.167 10.574)"/>
            </g>
        </g>
    </g>
</svg>
