<svg xmlns="http://www.w3.org/2000/svg" xmlns:xlink="http://www.w3.org/1999/xlink" width="170" height="82" viewBox="0 0 170 82">
    <defs>
        <rect id="anvgz1g4ka" width="170" height="81.34" x="0" y="0" rx="8.134"/>
    </defs>
    <g fill="none" fill-rule="evenodd">
        <mask id="ffk850t7fb" fill="#fff">
            <use xlink:href="#anvgz1g4ka"/>
        </mask>
        <use fill="#FCC8B2" xlink:href="#anvgz1g4ka"/>
        <g fill-rule="nonzero" mask="url(#ffk850t7fb)" opacity=".5">
            <g transform="translate(123.636 14.641)">
                <rect width="47.952" height="78.613" x="1.153" y="1.291" rx="8.069"/>
                <path fill="#FFF" d="M41.036 81.057H9.22C4.13 81.057 0 76.928 0 71.835V9.36C0 4.267 4.129.138 9.221.138h31.815c5.092 0 9.221 4.129 9.221 9.222v62.475c0 2.446-.972 4.791-2.7 6.52-1.73 1.73-4.076 2.702-6.521 2.702zM9.22 2.444c-3.82 0-6.916 3.096-6.916 6.916v62.475c0 3.82 3.097 6.916 6.916 6.916h31.815c3.82 0 6.916-3.096 6.916-6.916V9.36c0-3.82-3.097-6.916-6.916-6.916H9.22z"/>
                <path d="M16.83 1.176h16.598v4.071c0 1.19-.964 2.153-2.153 2.153H18.982c-1.189 0-2.153-.964-2.153-2.153V1.176z"/>
                <path fill="#FFF" d="M31.275 8.553H18.982c-1.825-.001-3.304-1.48-3.306-3.306V.023H34.58v5.224c0 1.825-1.48 3.305-3.305 3.306zM17.982 2.328v2.919c0 .553.448 1 1 1h12.293c.552 0 1-.447 1-1V2.328H17.982zM35.447 56.46h-4.5c-.636 0-1.152-.515-1.152-1.152 0-.637.516-1.153 1.152-1.153h4.503c.636 0 1.152.516 1.152 1.153s-.516 1.153-1.152 1.153h-.003zm-11.418 0h-9.222c-.636 0-1.152-.515-1.152-1.152 0-.637.516-1.153 1.152-1.153h9.222c.636 0 1.153.516 1.153 1.153s-.517 1.153-1.153 1.153zM35.447 64.76h-9.221c-.637 0-1.153-.516-1.153-1.153 0-.636.516-1.152 1.153-1.152h9.221c.637 0 1.153.516 1.153 1.152 0 .637-.516 1.153-1.153 1.153zm-16.137 0h-4.5c-.637 0-1.153-.516-1.153-1.153 0-.636.516-1.152 1.153-1.152h4.502c.637 0 1.153.516 1.153 1.152 0 .637-.516 1.153-1.153 1.153h-.002zM33.197 43.825H17.06c-1.91 0-3.458-1.548-3.458-3.458V22.155c0-1.91 1.548-3.458 3.458-3.458h16.137c1.91 0 3.458 1.548 3.458 3.458v18.212c0 1.91-1.548 3.458-3.458 3.458zM17.06 21.002c-.637 0-1.153.516-1.153 1.153v18.212c0 .637.516 1.153 1.153 1.153h16.137c.637 0 1.153-.516 1.153-1.153V22.155c0-.637-.516-1.153-1.153-1.153H17.06z"/>
            </g>
        </g>
    </g>
</svg>
