<svg width="307" height="130" viewBox="0 0 307 130" fill="none" xmlns="http://www.w3.org/2000/svg">
<path fill-rule="evenodd" clip-rule="evenodd" d="M265 50.9998C259.077 51.0388 253.237 52.4058 247.912 54.9998C235.684 37.9038 213.72 30.8058 193.8 37.5118C181.586 13.9488 156.083 0.383836 129.718 3.42484C103.352 6.46684 81.6081 25.4828 75.0801 51.2078C74.3521 51.1678 73.7041 50.9998 73.0001 50.9998C53.3901 51.0258 36.7061 65.2958 33.6401 84.6638C24.6401 81.1258 14.3941 83.3358 7.65308 90.2698C0.911081 97.2038 -1.00992 107.507 2.78008 116.405C6.57008 125.303 15.3291 131.056 25.0001 131H265C287.091 131 305 113.091 305 90.9998C305 68.9088 287.091 50.9998 265 50.9998Z" fill="url(#paint0_linear)"/>
<path d="M265 50.0002C259.077 50.0392 253.237 51.4062 247.912 54.0002C235.684 36.9042 213.72 29.8062 193.8 36.5122C182.203 14.1062 158.506 0.625176 133.32 2.10518C108.135 3.58518 86.1801 19.7502 77.2881 43.3602C91.8791 29.6312 112.065 23.5422 131.814 26.9122C151.564 30.2822 168.587 42.7222 177.8 60.5122C197.72 53.8062 219.684 60.9042 231.912 78.0002C245.68 71.3542 262.039 73.1842 273.998 82.7082C285.958 92.2322 291.403 107.765 288.008 122.672C302.311 112.665 308.458 94.5292 303.189 77.8872C297.921 61.2462 282.456 49.9532 265 50.0002Z" fill="url(#paint1_linear)" stroke="white" stroke-width="2"/>
<defs>
<linearGradient id="paint0_linear" x1="-324.376" y1="67.0165" x2="272.941" y2="130.345" gradientUnits="userSpaceOnUse">
<stop offset="0.00069" stop-color="#D5D5D5"/>
<stop offset="1" stop-color="#343434"/>
</linearGradient>
<linearGradient id="paint1_linear" x1="210.238" y1="60.5619" x2="224.421" y2="30.9125" gradientUnits="userSpaceOnUse">
<stop stop-color="#343434"/>
<stop offset="1"/>
</linearGradient>
</defs>
</svg>
