<svg xmlns="http://www.w3.org/2000/svg" width="106" height="151" viewBox="0 0 106 151">
    <g fill="none" fill-rule="evenodd">
        <g fill-rule="nonzero">
            <g>
                <g>
                    <g>
                        <g fill="#000">
                            <path d="M104.944 30.957L87.711 1.835C87.206.98 86.383.363 85.422.117c-.96-.246-1.978-.1-2.83.406L78.4 3.01c-3.113 1.854-4.374 5.73-2.95 9.065-1.744.85-3.762.934-5.57.23l-4.42-1.728c-1.633-.647-3.428-.76-5.13-.326l-6.753 1.713c-.33.084-.653.187-.97.31l-.125-.073c-4.025-2.312-6.38-3.018-10.548-1.404l-3.909 1.514c-2.004.782-4.257.595-6.104-.51l-1.509-.891c.727-3.083-.63-6.281-3.35-7.897L22.868.525C22.017.02 21-.127 20.04.12s-1.784.864-2.289 1.718L.522 30.957c-.505.854-.651 1.873-.405 2.835.245.961.862 1.786 1.715 2.291l4.192 2.488c1.11.66 2.377 1.01 3.668 1.01 1.551 0 3.062-.498 4.312-1.42l1.954 1.155-2.305 3.216c-1.517 2.112-1.53 4.954-.032 7.08 1.497 2.125 4.176 3.065 6.67 2.342.011.24.036.479.074.716.482 2.948 3.025 5.112 6.007 5.114.575-.001 1.146-.082 1.698-.242.141 3.258 2.816 5.828 6.073 5.835.335 0 .67-.027 1-.081.756-.125 1.481-.393 2.138-.787.654 2.74 3.097 4.675 5.91 4.68.336 0 .67-.027 1.001-.081 1.597-.258 3.025-1.145 3.964-2.464l.095-.13 5.347 3.171c1.453.854 3.186 1.09 4.815.659 1.567-.405 2.904-1.428 3.704-2.837.59-1.05.855-2.253.758-3.455l.977.58c1.453.854 3.186 1.091 4.815.659 1.567-.405 2.904-1.428 3.704-2.837.608-1.074.874-2.31.76-3.539 1.271.52 2.676.612 4.003.262 2.822-.73 4.71-3.388 4.472-6.296 1.45.847 3.177 1.08 4.8.65 1.571-.402 2.912-1.427 3.715-2.838 1.398-2.5.886-5.634-1.234-7.556.113-.076.225-.15.34-.22l3.464-2.029c.966.454 2.02.69 3.086.69 1.291 0 2.558-.35 3.668-1.01l4.192-2.487c.852-.506 1.47-1.33 1.715-2.292.246-.961.1-1.981-.405-2.835l-.003.003zm-88.367 17.95c-1.555-1.124-1.907-3.297-.786-4.856l2.711-3.78c1.132-1.523 3.275-1.857 4.815-.75 1.541 1.107 1.912 3.246.834 4.809l-2.725 3.79c-1.12 1.561-3.292 1.918-4.852.798l.003-.01zm7.775 5.59c-1.554-1.125-1.906-3.298-.786-4.857l2.712-3.78 2.992-4.172c.536-.752 1.35-1.257 2.26-1.404.19-.031.38-.047.572-.047 1.301.003 2.492.735 3.085 1.895.593 1.16.49 2.555-.269 3.614l-5.703 7.955c-.537.755-1.352 1.265-2.265 1.416-.913.152-1.849-.067-2.6-.608l.002-.013zm7.776 5.59c-1.553-1.125-1.905-3.297-.786-4.856l5.703-7.955c1.142-1.495 3.263-1.81 4.79-.713 1.526 1.097 1.905 3.21.856 4.772l-2.528 3.526-1.915 2.679-1.27 1.773c-1.125 1.557-3.295 1.91-4.853.787l.003-.013zm11.622 4.434c-1.388.228-2.775-.403-3.517-1.6-.741-1.196-.69-2.721.13-3.865l1.899-2.647c1.136-1.513 3.27-1.84 4.806-.735 1.535 1.104 1.908 3.235.84 4.796l-1.897 2.645c-.536.752-1.35 1.259-2.261 1.406zm44.073-17.122c-.454.794-1.21 1.37-2.096 1.595-.945.254-1.952.12-2.798-.375l-4.283-2.542-1.336 2.256c1.628.973 2.184 3.07 1.252 4.723-.455.793-1.21 1.368-2.096 1.595-.948.254-1.959.117-2.806-.38l-3.481-2.065-1.336 2.256c1.627.974 2.182 3.069 1.252 4.723-.455.793-1.211 1.368-2.096 1.595-.949.254-1.96.117-2.806-.38l-5.279-3.154-1.336 2.256c1.627.974 2.183 3.069 1.252 4.723-.454.793-1.21 1.368-2.096 1.595-.948.254-1.959.117-2.806-.38l-5.153-3.065.262-.375c1.329-1.851 1.516-4.29.486-6.322s-3.106-3.32-5.382-3.339c1.23-2.157 1.032-4.846-.502-6.798-1.534-1.953-4.097-2.778-6.48-2.088-.01-.24-.035-.48-.074-.719-.4-2.436-2.225-4.39-4.625-4.953-2.4-.563-4.903.377-6.341 2.382l-.074.103c-.638-1.805-2.085-3.204-3.908-3.78-1.823-.575-3.81-.26-5.366.852l-1.952-1.155c.032-.052.069-.102.1-.155l13.435-22.71 1.23.727c2.538 1.515 5.632 1.772 8.384.698l3.91-1.514c2.737-1.05 4.146-1 7.16.604-1.784 1.593-2.803 3.874-2.801 6.267v9.03c.001 2.002 1.62 3.625 3.618 3.63 3.877.007 7.24-2.682 8.09-6.47l17.938 10.638 2.067 1.226 7.645 4.533c1.617.977 2.166 3.064 1.239 4.712h-.01zm.055-8.742c-.473.281-.922.603-1.341.96l-3.309-1.962-7.073-4.198-4.49-2.678-15.154-8.986v2.689c0 3.124-2.529 5.656-5.649 5.656-.552-.003-.998-.452-.998-1.004v-9.026c.002-2.647 1.8-4.953 4.365-5.596l6.757-1.713c1.17-.3 2.405-.222 3.529.223l4.414 1.737c2.537.99 5.376.85 7.805-.383l12.808 21.65c.245.414.53.802.851 1.16l-2.515 1.471z" transform="translate(-288 -2187) translate(165 2051) translate(122 136) translate(1)"/>
                            <path d="M84.75 2.658c.288.074.533.26.684.515l17.233 29.122c.16.25.211.555.144.845l-.013.008c-.075.29-.264.536-.524.684l-4.191 2.488c-2.19 1.295-5.014.571-6.312-1.62L78.096 11.588c-.623-1.053-.803-2.31-.5-3.496.304-1.185 1.065-2.201 2.116-2.825l4.192-2.487c.255-.151.56-.195.847-.12zm-63.214.124l4.192 2.487c1.051.623 1.812 1.64 2.115 2.825.304 1.185.124 2.443-.499 3.495L13.668 34.703c-1.301 2.188-4.125 2.909-6.313 1.611l-4.192-2.487c-.255-.151-.44-.398-.512-.685-.074-.287-.03-.592.122-.847L20.006 3.173c.15-.255.397-.44.684-.513.287-.074.591-.03.846.122z" transform="translate(-288 -2187) translate(165 2051) translate(122 136) translate(1)"/>
                        </g>
                        <g transform="translate(-288 -2187) translate(165 2051) translate(122 136) translate(1) translate(23.438 72.656)">
                            <path fill="#000" d="M45.154 77.007c-.994 0-1.922-.5-2.467-1.332L28.994 54.872 15.302 75.681c-.612.921-1.686 1.426-2.786 1.308-1.1-.117-2.043-.836-2.447-1.866l-1.863-4.796-5.143.186c-1.106.036-2.14-.546-2.682-1.51-.542-.963-.503-2.15.101-3.075l15.834-24.063h25.35L57.5 65.922c.605.926.644 2.112.101 3.076-.542.963-1.576 1.546-2.682 1.51l-5.143-.187-1.863 4.796c-.444 1.14-1.542 1.89-2.764 1.89h.005zM10.21 67.28l2.625 6.766 16.16-24.57 16.17 24.57 2.616-6.763 7.252.264-14.959-22.716H17.915L2.96 67.553l7.25-.273z"/>
                            <circle cx="28.711" cy="26.367" r="26.367" fill="#FE5814"/>
                        </g>
                    </g>
                </g>
            </g>
        </g>
    </g>
</svg>
