<svg xmlns="http://www.w3.org/2000/svg" width="134" height="150" viewBox="0 0 134 150">
    <g fill="none" fill-rule="evenodd">
        <g fill-rule="nonzero">
            <g>
                <g transform="translate(-1033 -2188) translate(165 2051) translate(868 137)">
                    <path fill="#000" stroke="#FFF" stroke-width="1.158" d="M95.096 107.88c3.29-.881 6.114-.957 8.33-.244 2.14.69 3.692 2.128 4.52 4.263.383.988.414 2.2-.076 3.319-.42.96-1.225 1.845-2.492 2.474h0L75.05 132.273c-4.145 1.537-10.807 2.331-17.828 2.909h0l-1.22.098c-1.017.08-2.04.155-3.059.228h0l-1.224.086c-1.222.085-2.436.166-3.632.246-3.89.26-7.569.507-10.339.805h0L12.17 147.161c-.206.085-.424.126-.64.126-.33 0-.656-.096-.937-.284-.466-.313-.746-.837-.746-1.399h0v-24.65c0-.465.188-.886.493-1.19.304-.305.725-.493 1.19-.493h9.882c.39-3.089 1.84-6.003 4.108-8.182 2.56-2.458 5.866-3.74 9.315-3.598h0l5.076.205c.465.019.878.224 1.17.54.292.318.463.746.444 1.21-.019.465-.225.879-.542 1.171-.316.292-.743.463-1.208.443h0l-5.076-.206c-2.522-.101-4.95.841-6.847 2.663-2.02 1.94-3.18 4.652-3.18 7.437 0 .465-.188.885-.492 1.19-.305.305-.726.493-1.19.493h0-9.777v20.455l23.478-9.651c3.334-.435 7.142-.69 11.173-.96 2.016-.135 4.13-.276 6.26-.435h0l1.166-.089c7.263-.562 14.537-1.353 18.352-2.741h0l30.247-14.542c.362-.181.606-.38.753-.572-.354-2.424-1.536-3.145-2.943-3.44-1.812-.378-4.038.016-5.595.43h0l-24.535 7.914c-1.092 1.64-3.062 2.89-5.978 3.067h0l-16.712 1.01c-.466.027-.898-.134-1.22-.42-.322-.285-.534-.694-.562-1.159-.028-.464.134-.895.42-1.218.286-.322.694-.535 1.158-.563h0l16.713-1.01c1.762-.107 2.952-.772 3.5-1.734.295-.636.36-1.011.355-1.417-.008-.874-.397-1.805-1.221-2.49-.651-.54-1.581-.933-2.825-.983h0l-5.078-.206c-.465-.019-.878-.224-1.17-.54-.292-.317-.463-.745-.444-1.21.019-.465.225-.879.542-1.171.316-.292.743-.463 1.208-.442h0l5.078.205c1.947.079 3.532.72 4.72 1.678 1.54 1.241 2.409 3.01 2.54 4.736h0zM123.771 3.18c.424.285.694.744.74 1.247l.007.152v24.65c0 .465-.189.886-.493 1.19-.267.267-.622.444-1.018.485l-.172.008h-9.883c-.39 3.089-1.84 6.003-4.108 8.182-2.468 2.37-5.631 3.646-8.946 3.608l-.369-.01-30.498-1.234c-1.947-.079-3.532-.72-4.72-1.678-1.458-1.176-2.315-2.825-2.513-4.463l-.027-.273-22.504 7.259c-1.869.503-3.502.737-4.982.737-1.958 0-3.64-.41-4.984-1.228-1.306-.797-2.283-1.98-2.884-3.529-.383-.988-.414-2.2.076-3.318.393-.896 1.12-1.727 2.244-2.345l.248-.13 30.328-14.58c4.36-1.615 11.553-2.419 19-3.003l.657-.05 1.225-.093.613-.045h0l.612-.044 1.224-.086c1.222-.085 2.437-.166 3.632-.246 3.66-.245 7.135-.478 9.84-.753l.499-.052 25.58-10.516c.52-.213 1.11-.154 1.576.158zm-2.62 3.91L97.22 16.859l-.518.056c-2.81.293-6.407.534-10.21.788-2.007.135-4.12.276-6.25.435h0l-1.165.088-.574.045c-7.071.56-14.065 1.346-17.78 2.697h0L30.483 35.505l-.065.033c-.344.179-.61.395-.861 1.533.551 1.422 1.709 2.157 3.109 2.45 1.812.378 4.037-.016 5.595-.43h0l24.535-7.915.13-.187c1.115-1.546 3.044-2.71 5.848-2.88h0L85.486 27.1l.172-.002c.398.017.764.172 1.046.422.322.286.536.695.564 1.159.028.464-.135.895-.42 1.217-.286.323-.695.536-1.159.564h0l-16.712 1.01-.271.021c-1.597.154-2.707.794-3.363 1.98-.149.347-.227.732-.222 1.15.009.874.398 1.805 1.221 2.49.651.54 1.582.933 2.825.984h0l30.498 1.234.315.007c2.408.014 4.714-.924 6.532-2.67 2.021-1.94 3.18-4.651 3.18-7.437 0-.465.188-.885.493-1.19.304-.305.725-.493 1.19-.493h9.776V7.091z"/>
                    <rect width="52.124" height="52.124" x="43.436" y="49.807" fill="#FE5814" rx="26.062"/>
                    <rect width="32.432" height="15.292" x="109.749" y="8.687" fill="#000" rx="2.095" transform="rotate(90 125.965 16.333)"/>
                    <rect width="32.432" height="15.292" x="-8.108" y="125.676" fill="#000" rx="2.095" transform="rotate(90 8.108 133.321)"/>
                    <path fill="#000" d="M47.752 109.607c0 1.25 1.013 2.262 2.263 2.262s2.262-1.013 2.262-2.262c0-1.25-1.013-2.262-2.262-2.262h-.002c-1.25 0-2.261 1.012-2.261 2.262z"/>
                </g>
            </g>
        </g>
    </g>
</svg>
