<svg xmlns="http://www.w3.org/2000/svg" xmlns:xlink="http://www.w3.org/1999/xlink" width="170" height="82" viewBox="0 0 170 82">
    <defs>
        <rect id="jq4qcasbta" width="170" height="81.34" x="0" y="0" rx="8.134"/>
    </defs>
    <g fill="none" fill-rule="evenodd">
        <mask id="ma9cl7u5bb" fill="#fff">
            <use xlink:href="#jq4qcasbta"/>
        </mask>
        <use fill="#FCC8B2" xlink:href="#jq4qcasbta"/>
        <g fill-rule="nonzero" mask="url(#ma9cl7u5bb)" opacity=".5">
            <g transform="translate(86.22 21.148)">
                <path fill="#FDD7C7" d="M73.835 60.348L42.286 28.79l-.101-.095c2.706-8.203.124-17.227-6.51-22.757C29.038.409 19.697-.506 12.116 3.633c.27.199.523.418.76.655l11.2 11.2c2.577 2.577 2.577 6.756 0 9.333-2.578 2.577-6.756 2.577-9.334 0L3.537 13.62c-.14-.14-.272-.287-.406-.437-3.557 7.61-2.248 16.607 3.33 22.888 5.578 6.281 14.357 8.644 22.334 6.011l.096.102 31.556 31.55c1.776 1.775 4.183 2.773 6.694 2.773 2.51 0 4.918-.998 6.694-2.773 1.775-1.775 2.773-4.183 2.773-6.694 0-2.51-.998-4.918-2.773-6.693z"/>
                <path fill="#FFF" d="M67.14 77.525c-2.782.007-5.45-1.098-7.412-3.07l-31.22-31.221C20.184 45.716 11.176 43.08 5.5 36.5c-5.674-6.58-6.96-15.876-3.282-23.748.147-.314.445-.532.79-.577.343-.045.687.09.91.355.115.139.225.26.337.372l11.196 11.2c1.41 1.41 3.466 1.962 5.393 1.445 1.927-.516 3.432-2.02 3.948-3.948.516-1.926-.034-3.982-1.445-5.393l-11.2-11.2c-.2-.2-.416-.386-.644-.555-.28-.205-.435-.54-.412-.886.023-.346.221-.657.526-.823 7.846-4.282 17.5-3.407 24.449 2.217 6.948 5.623 9.817 14.883 7.265 23.45l31.221 31.218c2.996 2.998 3.89 7.505 2.268 11.42-1.622 3.916-5.442 6.47-9.68 6.47v.007zM28.795 41.067c.277 0 .54.112.732.31l.086.09 31.552 31.548c3.3 3.3 8.65 3.3 11.95 0 3.3-3.3 3.3-8.65 0-11.95L41.559 29.511l-.092-.087c-.278-.272-.378-.678-.256-1.047 2.49-7.556.273-15.868-5.648-21.18C29.64 1.885 21.137.58 13.896 3.875l10.892 10.893c1.925 1.924 2.677 4.73 1.972 7.36-.704 2.628-2.758 4.682-5.387 5.387-2.63.704-5.435-.048-7.36-1.972L3.468 14.997c-2.732 7.221-1.073 15.37 4.266 20.946 5.34 5.576 13.408 7.589 20.74 5.172.104-.033.212-.05.321-.048z"/>
                <path d="M78.94 5.71l-5.982-4.49-10.47 8.973 2.985 2.237c-.061.069-.122.138-.179.213L52.173 30.068l4.867 3.66 13.121-17.425c.059-.078.112-.159.163-.24l4.127 3.096L78.94 5.711z"/>
                <path fill="#FFF" d="M57.042 34.764c-.22 0-.434-.071-.61-.203l-4.867-3.66c-.216-.161-.358-.402-.396-.669-.038-.267.031-.538.193-.753L64.04 12.63l-2.16-1.626c-.246-.185-.396-.473-.406-.781-.01-.308.121-.605.356-.805L72.3.445c.361-.31.89-.326 1.27-.04l5.983 4.486c.35.263.493.72.354 1.135l-4.483 13.466c-.103.31-.349.551-.66.649-.312.097-.652.04-.913-.157l-3.306-2.478-12.692 16.852c-.162.215-.404.357-.67.394-.047.007-.094.012-.141.012zm-3.444-4.879l3.253 2.44L69.36 15.71c.035-.047.071-.1.11-.16.15-.244.395-.413.676-.467.28-.053.571.014.8.186l2.998 2.25 3.81-11.427-4.743-3.558-8.898 7.61 1.972 1.478c.228.171.374.43.402.715.027.284-.066.567-.258.779-.04.045-.081.091-.12.142L53.6 29.885z"/>
                <rect width="18.279" height="52.279" x="31.212" y="25.689" fill="#FDD7C7" rx="3.05" transform="rotate(36.98 40.351 51.828)"/>
                <path fill="#FFF" d="M31.325 77.998c-.88.002-1.737-.284-2.44-.813l-9.73-7.319c-1.793-1.35-2.153-3.898-.803-5.692l27.777-36.901c1.35-1.793 3.898-2.153 5.692-.803l9.73 7.319c1.793 1.35 2.153 3.898.803 5.692L34.577 76.38c-.77 1.02-1.974 1.62-3.252 1.618zM49.38 27.685c-.64 0-1.243.302-1.627.814L19.976 65.385c-.673.899-.491 2.173.407 2.847l9.73 7.318c.431.324.973.463 1.507.387.534-.077 1.016-.362 1.34-.793l27.772-36.877c.323-.431.462-.973.386-1.507-.076-.534-.361-1.015-.793-1.339l-9.73-7.319c-.35-.267-.776-.413-1.215-.417z"/>
            </g>
        </g>
    </g>
</svg>
