<svg width="392" height="280" viewBox="0 0 392 280" fill="none" xmlns="http://www.w3.org/2000/svg">
<path d="M384 252H380V248C380 243.582 376.418 240 372 240C367.582 240 364 243.582 364 248V252H360C355.582 252 352 255.582 352 260C352 264.418 355.582 268 360 268H364V272C364 276.418 367.582 280 372 280C376.418 280 380 276.418 380 272V268H384C388.418 268 392 264.418 392 260C392 255.582 388.418 252 384 252ZM48 12H44V8C44 3.582 40.418 0 36 0C31.582 0 28 3.582 28 8V12H24C19.582 12 16 15.582 16 20C16 24.418 19.582 28 24 28H28V32C28 36.418 31.582 40 36 40C40.418 40 44 36.418 44 32V28H48C52.418 28 56 24.418 56 20C56 15.582 52.418 12 48 12ZM32 148H28V144C28 139.582 24.418 136 20 136C15.582 136 12 139.582 12 144V148H8C3.582 148 0 151.582 0 156C0 160.418 3.582 164 8 164H12V168C12 172.418 15.582 176 20 176C24.418 176 28 172.418 28 168V164H32C36.418 164 40 160.418 40 156C40 151.582 36.418 148 32 148Z" fill="url(#paint0_linear)"/>
<defs>
<linearGradient id="paint0_linear" x1="-216.835" y1="-7.91068e-06" x2="199.312" y2="337.607" gradientUnits="userSpaceOnUse">
<stop stop-color="#D5D5D5"/>
<stop offset="1"/>
</linearGradient>
</defs>
</svg>
