<svg xmlns="http://www.w3.org/2000/svg" width="286" height="227" viewBox="0 0 286 227">
    <g fill="none" fill-rule="evenodd">
        <path fill="#343434" fill-rule="nonzero" d="M98.889 111.133L97.761 106.921 80.914 111.438 82.042 115.647 83.17 119.859 100.017 115.342zM208.385 81.793L202.718 60.781 181.618 66.449 174.903 82.602 177.743 90.004 182.819 103.233 192.953 108.476 214.054 102.808z"/>
        <rect width="9.524" height="46.429" x="76.973" y="92.181" fill="#C9C9C9" rx="4.762" transform="rotate(-15 81.735 115.395)"/>
        <rect width="21.429" height="30.952" x="97.786" y="92.857" fill="#343434" fill-rule="nonzero" rx="4.762" transform="rotate(-15 108.5 108.333)"/>
        <rect width="83.929" height="51.19" x="106.714" y="71.429" fill="#EEE" rx="4.762" transform="rotate(-15 148.679 97.024)"/>
        <rect width="70.81" height="42.81" x="113.274" y="75.619" stroke="#D5D5D5" stroke-width="1.19" rx="4.762" transform="rotate(-15 148.679 97.024)"/>
        <g>
            <path fill="#FE5814" d="M4.762 77.345L7.272 77.345 7.272 0 4.762 0z" transform="translate(160.881)"/>
            <path fill="#FE5814" d="M6.357 19.725L33.57 9.861 6.357 0 6.357 19.725" transform="translate(160.881)"/>
            <path fill="#FFF" d="M0 80.23c0 3.632 2.94 6.572 6.57 6.572 3.632 0 6.572-2.94 6.572-6.571 0-3.628-2.94-6.57-6.571-6.57C2.94 73.66 0 76.602 0 80.23" transform="translate(160.881)"/>
            <path fill="#FCC8B2" d="M3.265 80.23c0 1.828 1.481 3.31 3.306 3.31 1.827 0 3.306-1.482 3.306-3.31 0-1.823-1.48-3.303-3.306-3.303-1.825 0-3.306 1.48-3.306 3.304" transform="translate(160.881)"/>
        </g>
        <rect width="9.524" height="72.619" x="203.738" y="44.048" fill="#FCC8B2" rx="4.762" transform="rotate(-15 208.5 80.357)"/>
        <path stroke="#FFF" stroke-linecap="square" stroke-width="1.19" d="M200.464 44.94L219.214 115.476"/>
        <path fill="#343434" fill-rule="nonzero" stroke="#FFF" stroke-width="1.6" d="M133.516 200v-.037c-2.192-.284-3.885-2.158-3.885-4.427 0-2.466 1.999-4.465 4.464-4.465h8.14v-47.007L114.414 200h-18.71c-2.466 0-4.465-1.999-4.465-4.464 0-2.466 1.999-4.465 4.464-4.465h13.425l31.24-62.767c-3.968-2.172-6.723-6.29-6.846-11.092l-.005-.336c0-7.212 5.867-13.079 13.08-13.079 7.211 0 13.078 5.867 13.078 13.079 0 4.945-2.79 9.206-6.85 11.428h0l31.343 62.977.066-.002c.426-.135.88-.208 1.35-.208h14.286c2.466 0 4.464 2 4.464 4.465S202.335 200 199.87 200h-21.091l-27.823-55.936v47.007h7.545c2.466 0 4.464 2 4.464 4.465 0 2.059-1.394 3.792-3.29 4.308V200h-26.158z"/>
        <circle cx="146.595" cy="116.876" r="4.36" fill="#FE5814" fill-rule="nonzero"/>
        <circle cx="234.437" cy="176.437" r="3" fill="#FE5814" fill-rule="nonzero"/>
        <circle cx="282.437" cy="192.437" r="3" fill="#FE5814" fill-rule="nonzero"/>
        <path fill="#FE5814" d="M67.805 186.503c0 3.04-2.463 5.497-5.503 5.497-3.035 0-5.497-2.458-5.497-5.497 0-3.04 2.462-5.503 5.497-5.503 3.04 0 5.503 2.463 5.503 5.503M7.805 208.502c0 1.934-1.568 3.498-3.502 3.498-1.931 0-3.498-1.564-3.498-3.498 0-1.935 1.567-3.502 3.498-3.502 1.934 0 3.502 1.567 3.502 3.502M259 221.503c0 3.04-2.463 5.497-5.503 5.497-3.034 0-5.497-2.458-5.497-5.497 0-3.04 2.463-5.503 5.497-5.503 3.04 0 5.503 2.463 5.503 5.503"/>
    </g>
</svg>
